G75*
G70*
%OFA0B0*%
%FSLAX24Y24*%
%IPPOS*%
%LPD*%
%AMOC8*
5,1,8,0,0,1.08239X$1,22.5*
%
%ADD10C,0.0000*%
%ADD11C,0.0060*%
%ADD12C,0.0070*%
%ADD13C,0.0020*%
%ADD14R,0.0300X0.0250*%
%ADD15R,0.0500X0.1100*%
%ADD16C,0.0050*%
%ADD17C,0.0080*%
%ADD18C,0.0100*%
%ADD19R,0.0240X0.0340*%
%ADD20C,0.0120*%
%ADD21R,0.0340X0.0240*%
%ADD22C,0.0010*%
%ADD23C,0.0039*%
%ADD24C,0.0040*%
%ADD25C,0.0240*%
D10*
X000151Y000161D02*
X000151Y034807D01*
X059600Y034807D01*
X059600Y000161D01*
X000151Y000161D01*
X052340Y026057D02*
X052342Y026107D01*
X052348Y026157D01*
X052358Y026207D01*
X052371Y026255D01*
X052388Y026303D01*
X052409Y026349D01*
X052433Y026393D01*
X052461Y026435D01*
X052492Y026475D01*
X052526Y026512D01*
X052563Y026547D01*
X052602Y026578D01*
X052643Y026607D01*
X052687Y026632D01*
X052733Y026654D01*
X052780Y026672D01*
X052828Y026686D01*
X052877Y026697D01*
X052927Y026704D01*
X052977Y026707D01*
X053028Y026706D01*
X053078Y026701D01*
X053128Y026692D01*
X053176Y026680D01*
X053224Y026663D01*
X053270Y026643D01*
X053315Y026620D01*
X053358Y026593D01*
X053398Y026563D01*
X053436Y026530D01*
X053471Y026494D01*
X053504Y026455D01*
X053533Y026414D01*
X053559Y026371D01*
X053582Y026326D01*
X053601Y026279D01*
X053616Y026231D01*
X053628Y026182D01*
X053636Y026132D01*
X053640Y026082D01*
X053640Y026032D01*
X053636Y025982D01*
X053628Y025932D01*
X053616Y025883D01*
X053601Y025835D01*
X053582Y025788D01*
X053559Y025743D01*
X053533Y025700D01*
X053504Y025659D01*
X053471Y025620D01*
X053436Y025584D01*
X053398Y025551D01*
X053358Y025521D01*
X053315Y025494D01*
X053270Y025471D01*
X053224Y025451D01*
X053176Y025434D01*
X053128Y025422D01*
X053078Y025413D01*
X053028Y025408D01*
X052977Y025407D01*
X052927Y025410D01*
X052877Y025417D01*
X052828Y025428D01*
X052780Y025442D01*
X052733Y025460D01*
X052687Y025482D01*
X052643Y025507D01*
X052602Y025536D01*
X052563Y025567D01*
X052526Y025602D01*
X052492Y025639D01*
X052461Y025679D01*
X052433Y025721D01*
X052409Y025765D01*
X052388Y025811D01*
X052371Y025859D01*
X052358Y025907D01*
X052348Y025957D01*
X052342Y026007D01*
X052340Y026057D01*
D11*
X052280Y026057D02*
X052282Y026110D01*
X052288Y026163D01*
X052298Y026215D01*
X052312Y026266D01*
X052329Y026316D01*
X052350Y026365D01*
X052375Y026412D01*
X052403Y026457D01*
X052435Y026500D01*
X052470Y026540D01*
X052507Y026577D01*
X052547Y026612D01*
X052590Y026644D01*
X052635Y026672D01*
X052682Y026697D01*
X052731Y026718D01*
X052781Y026735D01*
X052832Y026749D01*
X052884Y026759D01*
X052937Y026765D01*
X052990Y026767D01*
X053043Y026765D01*
X053096Y026759D01*
X053148Y026749D01*
X053199Y026735D01*
X053249Y026718D01*
X053298Y026697D01*
X053345Y026672D01*
X053390Y026644D01*
X053433Y026612D01*
X053473Y026577D01*
X053510Y026540D01*
X053545Y026500D01*
X053577Y026457D01*
X053605Y026412D01*
X053630Y026365D01*
X053651Y026316D01*
X053668Y026266D01*
X053682Y026215D01*
X053692Y026163D01*
X053698Y026110D01*
X053700Y026057D01*
X053698Y026004D01*
X053692Y025951D01*
X053682Y025899D01*
X053668Y025848D01*
X053651Y025798D01*
X053630Y025749D01*
X053605Y025702D01*
X053577Y025657D01*
X053545Y025614D01*
X053510Y025574D01*
X053473Y025537D01*
X053433Y025502D01*
X053390Y025470D01*
X053345Y025442D01*
X053298Y025417D01*
X053249Y025396D01*
X053199Y025379D01*
X053148Y025365D01*
X053096Y025355D01*
X053043Y025349D01*
X052990Y025347D01*
X052937Y025349D01*
X052884Y025355D01*
X052832Y025365D01*
X052781Y025379D01*
X052731Y025396D01*
X052682Y025417D01*
X052635Y025442D01*
X052590Y025470D01*
X052547Y025502D01*
X052507Y025537D01*
X052470Y025574D01*
X052435Y025614D01*
X052403Y025657D01*
X052375Y025702D01*
X052350Y025749D01*
X052329Y025798D01*
X052312Y025848D01*
X052298Y025899D01*
X052288Y025951D01*
X052282Y026004D01*
X052280Y026057D01*
X051290Y026057D02*
X051290Y025457D01*
X050940Y025457D01*
X050940Y024707D01*
X055040Y024707D01*
X055040Y025457D01*
X054690Y025457D01*
X054690Y026057D01*
X055040Y026057D01*
X055040Y030957D01*
X050940Y030957D01*
X050940Y026057D01*
X051290Y026057D01*
X049412Y026732D02*
X049362Y026682D01*
X049362Y024782D01*
X049412Y024732D01*
X049412Y024582D01*
X049410Y024565D01*
X049406Y024548D01*
X049399Y024532D01*
X049389Y024518D01*
X049376Y024505D01*
X049362Y024495D01*
X049346Y024488D01*
X049329Y024484D01*
X049312Y024482D01*
X048612Y024482D01*
X048595Y024484D01*
X048578Y024488D01*
X048562Y024495D01*
X048548Y024505D01*
X048535Y024518D01*
X048525Y024532D01*
X048518Y024548D01*
X048514Y024565D01*
X048512Y024582D01*
X048512Y024732D01*
X048562Y024782D01*
X048562Y026682D01*
X048512Y026732D01*
X048512Y026882D01*
X048514Y026899D01*
X048518Y026916D01*
X048525Y026932D01*
X048535Y026946D01*
X048548Y026959D01*
X048562Y026969D01*
X048578Y026976D01*
X048595Y026980D01*
X048612Y026982D01*
X049312Y026982D01*
X049329Y026980D01*
X049346Y026976D01*
X049362Y026969D01*
X049376Y026959D01*
X049389Y026946D01*
X049399Y026932D01*
X049406Y026916D01*
X049410Y026899D01*
X049412Y026882D01*
X049412Y026732D01*
X048152Y026732D02*
X048102Y026682D01*
X048102Y024782D01*
X048152Y024732D01*
X048152Y024582D01*
X048150Y024565D01*
X048146Y024548D01*
X048139Y024532D01*
X048129Y024518D01*
X048116Y024505D01*
X048102Y024495D01*
X048086Y024488D01*
X048069Y024484D01*
X048052Y024482D01*
X047352Y024482D01*
X047335Y024484D01*
X047318Y024488D01*
X047302Y024495D01*
X047288Y024505D01*
X047275Y024518D01*
X047265Y024532D01*
X047258Y024548D01*
X047254Y024565D01*
X047252Y024582D01*
X047252Y024732D01*
X047302Y024782D01*
X047302Y026682D01*
X047252Y026732D01*
X047252Y026882D01*
X047254Y026899D01*
X047258Y026916D01*
X047265Y026932D01*
X047275Y026946D01*
X047288Y026959D01*
X047302Y026969D01*
X047318Y026976D01*
X047335Y026980D01*
X047352Y026982D01*
X048052Y026982D01*
X048069Y026980D01*
X048086Y026976D01*
X048102Y026969D01*
X048116Y026959D01*
X048129Y026946D01*
X048139Y026932D01*
X048146Y026916D01*
X048150Y026899D01*
X048152Y026882D01*
X048152Y026732D01*
X046853Y026850D02*
X046803Y026800D01*
X046803Y024900D01*
X046853Y024850D01*
X046853Y024700D01*
X046851Y024683D01*
X046847Y024666D01*
X046840Y024650D01*
X046830Y024636D01*
X046817Y024623D01*
X046803Y024613D01*
X046787Y024606D01*
X046770Y024602D01*
X046753Y024600D01*
X046053Y024600D01*
X046036Y024602D01*
X046019Y024606D01*
X046003Y024613D01*
X045989Y024623D01*
X045976Y024636D01*
X045966Y024650D01*
X045959Y024666D01*
X045955Y024683D01*
X045953Y024700D01*
X045953Y024850D01*
X046003Y024900D01*
X046003Y026800D01*
X045953Y026850D01*
X045953Y027000D01*
X045955Y027017D01*
X045959Y027034D01*
X045966Y027050D01*
X045976Y027064D01*
X045989Y027077D01*
X046003Y027087D01*
X046019Y027094D01*
X046036Y027098D01*
X046053Y027100D01*
X046753Y027100D01*
X046770Y027098D01*
X046787Y027094D01*
X046803Y027087D01*
X046817Y027077D01*
X046830Y027064D01*
X046840Y027050D01*
X046847Y027034D01*
X046851Y027017D01*
X046853Y027000D01*
X046853Y026850D01*
X044144Y026811D02*
X044094Y026761D01*
X044094Y024861D01*
X044144Y024811D01*
X044144Y024661D01*
X044142Y024644D01*
X044138Y024627D01*
X044131Y024611D01*
X044121Y024597D01*
X044108Y024584D01*
X044094Y024574D01*
X044078Y024567D01*
X044061Y024563D01*
X044044Y024561D01*
X043344Y024561D01*
X043327Y024563D01*
X043310Y024567D01*
X043294Y024574D01*
X043280Y024584D01*
X043267Y024597D01*
X043257Y024611D01*
X043250Y024627D01*
X043246Y024644D01*
X043244Y024661D01*
X043244Y024811D01*
X043294Y024861D01*
X043294Y026761D01*
X043244Y026811D01*
X043244Y026961D01*
X043246Y026978D01*
X043250Y026995D01*
X043257Y027011D01*
X043267Y027025D01*
X043280Y027038D01*
X043294Y027048D01*
X043310Y027055D01*
X043327Y027059D01*
X043344Y027061D01*
X044044Y027061D01*
X044061Y027059D01*
X044078Y027055D01*
X044094Y027048D01*
X044108Y027038D01*
X044121Y027025D01*
X044131Y027011D01*
X044138Y026995D01*
X044142Y026978D01*
X044144Y026961D01*
X044144Y026811D01*
X042806Y026850D02*
X042756Y026800D01*
X042756Y024900D01*
X042806Y024850D01*
X042806Y024700D01*
X042804Y024683D01*
X042800Y024666D01*
X042793Y024650D01*
X042783Y024636D01*
X042770Y024623D01*
X042756Y024613D01*
X042740Y024606D01*
X042723Y024602D01*
X042706Y024600D01*
X042006Y024600D01*
X041989Y024602D01*
X041972Y024606D01*
X041956Y024613D01*
X041942Y024623D01*
X041929Y024636D01*
X041919Y024650D01*
X041912Y024666D01*
X041908Y024683D01*
X041906Y024700D01*
X041906Y024850D01*
X041956Y024900D01*
X041956Y026800D01*
X041906Y026850D01*
X041906Y027000D01*
X041908Y027017D01*
X041912Y027034D01*
X041919Y027050D01*
X041929Y027064D01*
X041942Y027077D01*
X041956Y027087D01*
X041972Y027094D01*
X041989Y027098D01*
X042006Y027100D01*
X042706Y027100D01*
X042723Y027098D01*
X042740Y027094D01*
X042756Y027087D01*
X042770Y027077D01*
X042783Y027064D01*
X042793Y027050D01*
X042800Y027034D01*
X042804Y027017D01*
X042806Y027000D01*
X042806Y026850D01*
X041467Y026850D02*
X041417Y026800D01*
X041417Y024900D01*
X041467Y024850D01*
X041467Y024700D01*
X041465Y024683D01*
X041461Y024666D01*
X041454Y024650D01*
X041444Y024636D01*
X041431Y024623D01*
X041417Y024613D01*
X041401Y024606D01*
X041384Y024602D01*
X041367Y024600D01*
X040667Y024600D01*
X040650Y024602D01*
X040633Y024606D01*
X040617Y024613D01*
X040603Y024623D01*
X040590Y024636D01*
X040580Y024650D01*
X040573Y024666D01*
X040569Y024683D01*
X040567Y024700D01*
X040567Y024850D01*
X040617Y024900D01*
X040617Y026800D01*
X040567Y026850D01*
X040567Y027000D01*
X040569Y027017D01*
X040573Y027034D01*
X040580Y027050D01*
X040590Y027064D01*
X040603Y027077D01*
X040617Y027087D01*
X040633Y027094D01*
X040650Y027098D01*
X040667Y027100D01*
X041367Y027100D01*
X041384Y027098D01*
X041401Y027094D01*
X041417Y027087D01*
X041431Y027077D01*
X041444Y027064D01*
X041454Y027050D01*
X041461Y027034D01*
X041465Y027017D01*
X041467Y027000D01*
X041467Y026850D01*
X038643Y028655D02*
X037943Y028655D01*
X037926Y028657D01*
X037909Y028661D01*
X037893Y028668D01*
X037879Y028678D01*
X037866Y028691D01*
X037856Y028705D01*
X037849Y028721D01*
X037845Y028738D01*
X037843Y028755D01*
X037843Y028905D01*
X037893Y028955D01*
X037893Y030855D01*
X037843Y030905D01*
X037843Y031055D01*
X037845Y031072D01*
X037849Y031089D01*
X037856Y031105D01*
X037866Y031119D01*
X037879Y031132D01*
X037893Y031142D01*
X037909Y031149D01*
X037926Y031153D01*
X037943Y031155D01*
X038643Y031155D01*
X038660Y031153D01*
X038677Y031149D01*
X038693Y031142D01*
X038707Y031132D01*
X038720Y031119D01*
X038730Y031105D01*
X038737Y031089D01*
X038741Y031072D01*
X038743Y031055D01*
X038743Y030905D01*
X038693Y030855D01*
X038693Y028955D01*
X038743Y028905D01*
X038743Y028755D01*
X038741Y028738D01*
X038737Y028721D01*
X038730Y028705D01*
X038720Y028691D01*
X038707Y028678D01*
X038693Y028668D01*
X038677Y028661D01*
X038660Y028657D01*
X038643Y028655D01*
X039701Y028795D02*
X039701Y028945D01*
X039751Y028995D01*
X039751Y030895D01*
X039701Y030945D01*
X039701Y031095D01*
X039703Y031112D01*
X039707Y031129D01*
X039714Y031145D01*
X039724Y031159D01*
X039737Y031172D01*
X039751Y031182D01*
X039767Y031189D01*
X039784Y031193D01*
X039801Y031195D01*
X040501Y031195D01*
X040518Y031193D01*
X040535Y031189D01*
X040551Y031182D01*
X040565Y031172D01*
X040578Y031159D01*
X040588Y031145D01*
X040595Y031129D01*
X040599Y031112D01*
X040601Y031095D01*
X040601Y030945D01*
X040551Y030895D01*
X040551Y028995D01*
X040601Y028945D01*
X040601Y028795D01*
X040599Y028778D01*
X040595Y028761D01*
X040588Y028745D01*
X040578Y028731D01*
X040565Y028718D01*
X040551Y028708D01*
X040535Y028701D01*
X040518Y028697D01*
X040501Y028695D01*
X039801Y028695D01*
X039784Y028697D01*
X039767Y028701D01*
X039751Y028708D01*
X039737Y028718D01*
X039724Y028731D01*
X039714Y028745D01*
X039707Y028761D01*
X039703Y028778D01*
X039701Y028795D01*
X041580Y029535D02*
X041580Y030285D01*
X041619Y030287D01*
X041658Y030293D01*
X041696Y030302D01*
X041733Y030315D01*
X041769Y030332D01*
X041802Y030352D01*
X041834Y030376D01*
X041863Y030402D01*
X041889Y030431D01*
X041913Y030463D01*
X041933Y030496D01*
X041950Y030532D01*
X041963Y030569D01*
X041972Y030607D01*
X041978Y030646D01*
X041980Y030685D01*
X041978Y030724D01*
X041972Y030763D01*
X041963Y030801D01*
X041950Y030838D01*
X041933Y030874D01*
X041913Y030907D01*
X041889Y030939D01*
X041863Y030968D01*
X041834Y030994D01*
X041802Y031018D01*
X041769Y031038D01*
X041733Y031055D01*
X041696Y031068D01*
X041658Y031077D01*
X041619Y031083D01*
X041580Y031085D01*
X041580Y031835D01*
X049580Y031835D01*
X049580Y029535D01*
X041580Y029535D01*
X035916Y028890D02*
X035916Y028740D01*
X035866Y028690D01*
X035866Y026790D01*
X035916Y026740D01*
X035916Y026590D01*
X035914Y026573D01*
X035910Y026556D01*
X035903Y026540D01*
X035893Y026526D01*
X035880Y026513D01*
X035866Y026503D01*
X035850Y026496D01*
X035833Y026492D01*
X035816Y026490D01*
X035116Y026490D01*
X035099Y026492D01*
X035082Y026496D01*
X035066Y026503D01*
X035052Y026513D01*
X035039Y026526D01*
X035029Y026540D01*
X035022Y026556D01*
X035018Y026573D01*
X035016Y026590D01*
X035016Y026740D01*
X035066Y026790D01*
X035066Y028690D01*
X035016Y028740D01*
X035016Y028890D01*
X035018Y028907D01*
X035022Y028924D01*
X035029Y028940D01*
X035039Y028954D01*
X035052Y028967D01*
X035066Y028977D01*
X035082Y028984D01*
X035099Y028988D01*
X035116Y028990D01*
X035816Y028990D01*
X035833Y028988D01*
X035850Y028984D01*
X035866Y028977D01*
X035880Y028967D01*
X035893Y028954D01*
X035903Y028940D01*
X035910Y028924D01*
X035914Y028907D01*
X035916Y028890D01*
X034746Y029614D02*
X034746Y031914D01*
X026746Y031914D01*
X026746Y031164D01*
X026785Y031162D01*
X026824Y031156D01*
X026862Y031147D01*
X026899Y031134D01*
X026935Y031117D01*
X026968Y031097D01*
X027000Y031073D01*
X027029Y031047D01*
X027055Y031018D01*
X027079Y030986D01*
X027099Y030953D01*
X027116Y030917D01*
X027129Y030880D01*
X027138Y030842D01*
X027144Y030803D01*
X027146Y030764D01*
X027144Y030725D01*
X027138Y030686D01*
X027129Y030648D01*
X027116Y030611D01*
X027099Y030575D01*
X027079Y030542D01*
X027055Y030510D01*
X027029Y030481D01*
X027000Y030455D01*
X026968Y030431D01*
X026935Y030411D01*
X026899Y030394D01*
X026862Y030381D01*
X026824Y030372D01*
X026785Y030366D01*
X026746Y030364D01*
X026746Y029614D01*
X034746Y029614D01*
X034399Y027021D02*
X033699Y027021D01*
X033682Y027019D01*
X033665Y027015D01*
X033649Y027008D01*
X033635Y026998D01*
X033622Y026985D01*
X033612Y026971D01*
X033605Y026955D01*
X033601Y026938D01*
X033599Y026921D01*
X033599Y026771D01*
X033649Y026721D01*
X033649Y024821D01*
X033599Y024771D01*
X033599Y024621D01*
X033601Y024604D01*
X033605Y024587D01*
X033612Y024571D01*
X033622Y024557D01*
X033635Y024544D01*
X033649Y024534D01*
X033665Y024527D01*
X033682Y024523D01*
X033699Y024521D01*
X034399Y024521D01*
X034416Y024523D01*
X034433Y024527D01*
X034449Y024534D01*
X034463Y024544D01*
X034476Y024557D01*
X034486Y024571D01*
X034493Y024587D01*
X034497Y024604D01*
X034499Y024621D01*
X034499Y024771D01*
X034449Y024821D01*
X034449Y026721D01*
X034499Y026771D01*
X034499Y026921D01*
X034497Y026938D01*
X034493Y026955D01*
X034486Y026971D01*
X034476Y026985D01*
X034463Y026998D01*
X034449Y027008D01*
X034433Y027015D01*
X034416Y027019D01*
X034399Y027021D01*
X032924Y027079D02*
X032924Y026929D01*
X032874Y026879D01*
X032874Y024979D01*
X032924Y024929D01*
X032924Y024779D01*
X032922Y024762D01*
X032918Y024745D01*
X032911Y024729D01*
X032901Y024715D01*
X032888Y024702D01*
X032874Y024692D01*
X032858Y024685D01*
X032841Y024681D01*
X032824Y024679D01*
X032124Y024679D01*
X032107Y024681D01*
X032090Y024685D01*
X032074Y024692D01*
X032060Y024702D01*
X032047Y024715D01*
X032037Y024729D01*
X032030Y024745D01*
X032026Y024762D01*
X032024Y024779D01*
X032024Y024929D01*
X032074Y024979D01*
X032074Y026879D01*
X032024Y026929D01*
X032024Y027079D01*
X032026Y027096D01*
X032030Y027113D01*
X032037Y027129D01*
X032047Y027143D01*
X032060Y027156D01*
X032074Y027166D01*
X032090Y027173D01*
X032107Y027177D01*
X032124Y027179D01*
X032824Y027179D01*
X032841Y027177D01*
X032858Y027173D01*
X032874Y027166D01*
X032888Y027156D01*
X032901Y027143D01*
X032911Y027129D01*
X032918Y027113D01*
X032922Y027096D01*
X032924Y027079D01*
X031751Y026882D02*
X031751Y026732D01*
X031701Y026682D01*
X031701Y024782D01*
X031751Y024732D01*
X031751Y024582D01*
X031749Y024565D01*
X031745Y024548D01*
X031738Y024532D01*
X031728Y024518D01*
X031715Y024505D01*
X031701Y024495D01*
X031685Y024488D01*
X031668Y024484D01*
X031651Y024482D01*
X030951Y024482D01*
X030934Y024484D01*
X030917Y024488D01*
X030901Y024495D01*
X030887Y024505D01*
X030874Y024518D01*
X030864Y024532D01*
X030857Y024548D01*
X030853Y024565D01*
X030851Y024582D01*
X030851Y024732D01*
X030901Y024782D01*
X030901Y026682D01*
X030851Y026732D01*
X030851Y026882D01*
X030853Y026899D01*
X030857Y026916D01*
X030864Y026932D01*
X030874Y026946D01*
X030887Y026959D01*
X030901Y026969D01*
X030917Y026976D01*
X030934Y026980D01*
X030951Y026982D01*
X031651Y026982D01*
X031668Y026980D01*
X031685Y026976D01*
X031701Y026969D01*
X031715Y026959D01*
X031728Y026946D01*
X031738Y026932D01*
X031745Y026916D01*
X031749Y026899D01*
X031751Y026882D01*
X029270Y026921D02*
X029270Y026771D01*
X029220Y026721D01*
X029220Y024821D01*
X029270Y024771D01*
X029270Y024621D01*
X029268Y024604D01*
X029264Y024587D01*
X029257Y024571D01*
X029247Y024557D01*
X029234Y024544D01*
X029220Y024534D01*
X029204Y024527D01*
X029187Y024523D01*
X029170Y024521D01*
X028470Y024521D01*
X028453Y024523D01*
X028436Y024527D01*
X028420Y024534D01*
X028406Y024544D01*
X028393Y024557D01*
X028383Y024571D01*
X028376Y024587D01*
X028372Y024604D01*
X028370Y024621D01*
X028370Y024771D01*
X028420Y024821D01*
X028420Y026721D01*
X028370Y026771D01*
X028370Y026921D01*
X028372Y026938D01*
X028376Y026955D01*
X028383Y026971D01*
X028393Y026985D01*
X028406Y026998D01*
X028420Y027008D01*
X028436Y027015D01*
X028453Y027019D01*
X028470Y027021D01*
X029170Y027021D01*
X029187Y027019D01*
X029204Y027015D01*
X029220Y027008D01*
X029234Y026998D01*
X029247Y026985D01*
X029257Y026971D01*
X029264Y026955D01*
X029268Y026938D01*
X029270Y026921D01*
X027656Y026961D02*
X027656Y026811D01*
X027606Y026761D01*
X027606Y024861D01*
X027656Y024811D01*
X027656Y024661D01*
X027654Y024644D01*
X027650Y024627D01*
X027643Y024611D01*
X027633Y024597D01*
X027620Y024584D01*
X027606Y024574D01*
X027590Y024567D01*
X027573Y024563D01*
X027556Y024561D01*
X026856Y024561D01*
X026839Y024563D01*
X026822Y024567D01*
X026806Y024574D01*
X026792Y024584D01*
X026779Y024597D01*
X026769Y024611D01*
X026762Y024627D01*
X026758Y024644D01*
X026756Y024661D01*
X026756Y024811D01*
X026806Y024861D01*
X026806Y026761D01*
X026756Y026811D01*
X026756Y026961D01*
X026758Y026978D01*
X026762Y026995D01*
X026769Y027011D01*
X026779Y027025D01*
X026792Y027038D01*
X026806Y027048D01*
X026822Y027055D01*
X026839Y027059D01*
X026856Y027061D01*
X027556Y027061D01*
X027573Y027059D01*
X027590Y027055D01*
X027606Y027048D01*
X027620Y027038D01*
X027633Y027025D01*
X027643Y027011D01*
X027650Y026995D01*
X027654Y026978D01*
X027656Y026961D01*
X026026Y026843D02*
X026026Y026693D01*
X025976Y026643D01*
X025976Y024743D01*
X026026Y024693D01*
X026026Y024543D01*
X026024Y024526D01*
X026020Y024509D01*
X026013Y024493D01*
X026003Y024479D01*
X025990Y024466D01*
X025976Y024456D01*
X025960Y024449D01*
X025943Y024445D01*
X025926Y024443D01*
X025226Y024443D01*
X025209Y024445D01*
X025192Y024449D01*
X025176Y024456D01*
X025162Y024466D01*
X025149Y024479D01*
X025139Y024493D01*
X025132Y024509D01*
X025128Y024526D01*
X025126Y024543D01*
X025126Y024693D01*
X025176Y024743D01*
X025176Y026643D01*
X025126Y026693D01*
X025126Y026843D01*
X025128Y026860D01*
X025132Y026877D01*
X025139Y026893D01*
X025149Y026907D01*
X025162Y026920D01*
X025176Y026930D01*
X025192Y026937D01*
X025209Y026941D01*
X025226Y026943D01*
X025926Y026943D01*
X025943Y026941D01*
X025960Y026937D01*
X025976Y026930D01*
X025990Y026920D01*
X026003Y026907D01*
X026013Y026893D01*
X026020Y026877D01*
X026024Y026860D01*
X026026Y026843D01*
X022478Y027742D02*
X017128Y027742D01*
X017128Y029842D01*
X019378Y029842D01*
X019378Y030842D01*
X017128Y030842D01*
X017128Y032942D01*
X022478Y032942D01*
X024394Y032512D02*
X024394Y032362D01*
X024444Y032312D01*
X024444Y030412D01*
X024394Y030362D01*
X024394Y030212D01*
X024396Y030195D01*
X024400Y030178D01*
X024407Y030162D01*
X024417Y030148D01*
X024430Y030135D01*
X024444Y030125D01*
X024460Y030118D01*
X024477Y030114D01*
X024494Y030112D01*
X025194Y030112D01*
X025211Y030114D01*
X025228Y030118D01*
X025244Y030125D01*
X025258Y030135D01*
X025271Y030148D01*
X025281Y030162D01*
X025288Y030178D01*
X025292Y030195D01*
X025294Y030212D01*
X025294Y030362D01*
X025244Y030412D01*
X025244Y032312D01*
X025294Y032362D01*
X025294Y032512D01*
X025292Y032529D01*
X025288Y032546D01*
X025281Y032562D01*
X025271Y032576D01*
X025258Y032589D01*
X025244Y032599D01*
X025228Y032606D01*
X025211Y032610D01*
X025194Y032612D01*
X024494Y032612D01*
X024477Y032610D01*
X024460Y032606D01*
X024444Y032599D01*
X024430Y032589D01*
X024417Y032576D01*
X024407Y032562D01*
X024400Y032546D01*
X024396Y032529D01*
X024394Y032512D01*
X022478Y031742D02*
X022478Y028942D01*
X021119Y032979D02*
X020986Y033120D01*
X020847Y033254D01*
X020701Y033381D01*
X020549Y033501D01*
X020392Y033613D01*
X020229Y033718D01*
X020061Y033814D01*
X019889Y033902D01*
X019712Y033982D01*
X019532Y034053D01*
X019349Y034115D01*
X019163Y034167D01*
X018974Y034211D01*
X018784Y034245D01*
X018592Y034270D01*
X018399Y034286D01*
X018205Y034292D01*
X018012Y034289D01*
X017819Y034276D01*
X017627Y034253D01*
X017436Y034222D01*
X017247Y034181D01*
X017060Y034130D01*
X016875Y034071D01*
X016694Y034003D01*
X016517Y033926D01*
X016343Y033840D01*
X016174Y033746D01*
X016010Y033644D01*
X015851Y033534D01*
X015697Y033416D01*
X015550Y033291D01*
X015408Y033158D01*
X015274Y033019D01*
X015146Y032874D01*
X015026Y032722D01*
X014913Y032565D01*
X014808Y032402D01*
X014711Y032235D01*
X014623Y032063D01*
X014543Y031887D01*
X014471Y031707D01*
X014409Y031524D01*
X014356Y031338D01*
X014311Y031149D01*
X014276Y030959D01*
X014251Y030767D01*
X014235Y030574D01*
X014228Y030381D01*
X014231Y030187D01*
X014243Y029994D01*
X014265Y029802D01*
X014296Y029611D01*
X014337Y029422D01*
X014386Y029234D01*
X014445Y029050D01*
X014513Y028869D01*
X014590Y028691D01*
X014675Y028517D01*
X014768Y028348D01*
X014870Y028183D01*
X014980Y028024D01*
X015097Y027870D01*
X015222Y027722D01*
X015354Y027580D01*
X015492Y027445D01*
X015637Y027317D01*
X015789Y027197D01*
X015946Y027083D01*
X016108Y026978D01*
X016275Y026881D01*
X016447Y026792D01*
X016623Y026711D01*
X016803Y026639D01*
X016986Y026576D01*
X017172Y026522D01*
X017360Y026478D01*
X017550Y026442D01*
X017742Y026416D01*
X017935Y026400D01*
X018128Y026392D01*
X018960Y025598D02*
X018960Y024898D01*
X018962Y024881D01*
X018966Y024864D01*
X018973Y024848D01*
X018983Y024834D01*
X018996Y024821D01*
X019010Y024811D01*
X019026Y024804D01*
X019043Y024800D01*
X019060Y024798D01*
X019210Y024798D01*
X019260Y024848D01*
X021160Y024848D01*
X021210Y024798D01*
X021360Y024798D01*
X021377Y024800D01*
X021394Y024804D01*
X021410Y024811D01*
X021424Y024821D01*
X021437Y024834D01*
X021447Y024848D01*
X021454Y024864D01*
X021458Y024881D01*
X021460Y024898D01*
X021460Y025598D01*
X021458Y025615D01*
X021454Y025632D01*
X021447Y025648D01*
X021437Y025662D01*
X021424Y025675D01*
X021410Y025685D01*
X021394Y025692D01*
X021377Y025696D01*
X021360Y025698D01*
X021210Y025698D01*
X021160Y025648D01*
X019260Y025648D01*
X019210Y025698D01*
X019060Y025698D01*
X019043Y025696D01*
X019026Y025692D01*
X019010Y025685D01*
X018996Y025675D01*
X018983Y025662D01*
X018973Y025648D01*
X018966Y025632D01*
X018962Y025615D01*
X018960Y025598D01*
X016097Y025229D02*
X016097Y025079D01*
X016047Y025029D01*
X016047Y023129D01*
X016097Y023079D01*
X016097Y022929D01*
X016095Y022912D01*
X016091Y022895D01*
X016084Y022879D01*
X016074Y022865D01*
X016061Y022852D01*
X016047Y022842D01*
X016031Y022835D01*
X016014Y022831D01*
X015997Y022829D01*
X015297Y022829D01*
X015280Y022831D01*
X015263Y022835D01*
X015247Y022842D01*
X015233Y022852D01*
X015220Y022865D01*
X015210Y022879D01*
X015203Y022895D01*
X015199Y022912D01*
X015197Y022929D01*
X015197Y023079D01*
X015247Y023129D01*
X015247Y025029D01*
X015197Y025079D01*
X015197Y025229D01*
X015199Y025246D01*
X015203Y025263D01*
X015210Y025279D01*
X015220Y025293D01*
X015233Y025306D01*
X015247Y025316D01*
X015263Y025323D01*
X015280Y025327D01*
X015297Y025329D01*
X015997Y025329D01*
X016014Y025327D01*
X016031Y025323D01*
X016047Y025316D01*
X016061Y025306D01*
X016074Y025293D01*
X016084Y025279D01*
X016091Y025263D01*
X016095Y025246D01*
X016097Y025229D01*
X012389Y026288D02*
X012389Y028988D01*
X012387Y029005D01*
X012383Y029022D01*
X012376Y029038D01*
X012366Y029052D01*
X012353Y029065D01*
X012339Y029075D01*
X012323Y029082D01*
X012306Y029086D01*
X012289Y029088D01*
X011289Y029088D01*
X011272Y029086D01*
X011255Y029082D01*
X011239Y029075D01*
X011225Y029065D01*
X011212Y029052D01*
X011202Y029038D01*
X011195Y029022D01*
X011191Y029005D01*
X011189Y028988D01*
X011189Y026288D01*
X011191Y026271D01*
X011195Y026254D01*
X011202Y026238D01*
X011212Y026224D01*
X011225Y026211D01*
X011239Y026201D01*
X011255Y026194D01*
X011272Y026190D01*
X011289Y026188D01*
X012289Y026188D01*
X012306Y026190D01*
X012323Y026194D01*
X012339Y026201D01*
X012353Y026211D01*
X012366Y026224D01*
X012376Y026238D01*
X012383Y026254D01*
X012387Y026271D01*
X012389Y026288D01*
X011789Y027038D02*
X011789Y027518D01*
X011789Y027768D02*
X011789Y028238D01*
X010364Y028332D02*
X010364Y027852D01*
X010364Y027602D02*
X010364Y027132D01*
X010964Y026382D02*
X010962Y026365D01*
X010958Y026348D01*
X010951Y026332D01*
X010941Y026318D01*
X010928Y026305D01*
X010914Y026295D01*
X010898Y026288D01*
X010881Y026284D01*
X010864Y026282D01*
X009864Y026282D01*
X009847Y026284D01*
X009830Y026288D01*
X009814Y026295D01*
X009800Y026305D01*
X009787Y026318D01*
X009777Y026332D01*
X009770Y026348D01*
X009766Y026365D01*
X009764Y026382D01*
X009764Y029082D01*
X009766Y029099D01*
X009770Y029116D01*
X009777Y029132D01*
X009787Y029146D01*
X009800Y029159D01*
X009814Y029169D01*
X009830Y029176D01*
X009847Y029180D01*
X009864Y029182D01*
X010864Y029182D01*
X010881Y029180D01*
X010898Y029176D01*
X010914Y029169D01*
X010928Y029159D01*
X010941Y029146D01*
X010951Y029132D01*
X010958Y029116D01*
X010962Y029099D01*
X010964Y029082D01*
X010964Y026382D01*
X011400Y024777D02*
X012100Y024777D01*
X012117Y024775D01*
X012134Y024771D01*
X012150Y024764D01*
X012164Y024754D01*
X012177Y024741D01*
X012187Y024727D01*
X012194Y024711D01*
X012198Y024694D01*
X012200Y024677D01*
X012200Y024527D01*
X012150Y024477D01*
X012150Y022577D01*
X012200Y022527D01*
X012200Y022377D01*
X012198Y022360D01*
X012194Y022343D01*
X012187Y022327D01*
X012177Y022313D01*
X012164Y022300D01*
X012150Y022290D01*
X012134Y022283D01*
X012117Y022279D01*
X012100Y022277D01*
X011400Y022277D01*
X011383Y022279D01*
X011366Y022283D01*
X011350Y022290D01*
X011336Y022300D01*
X011323Y022313D01*
X011313Y022327D01*
X011306Y022343D01*
X011302Y022360D01*
X011300Y022377D01*
X011300Y022527D01*
X011350Y022577D01*
X011350Y024477D01*
X011300Y024527D01*
X011300Y024677D01*
X011302Y024694D01*
X011306Y024711D01*
X011313Y024727D01*
X011323Y024741D01*
X011336Y024754D01*
X011350Y024764D01*
X011366Y024771D01*
X011383Y024775D01*
X011400Y024777D01*
X009916Y024520D02*
X009916Y024370D01*
X009866Y024320D01*
X009866Y022420D01*
X009916Y022370D01*
X009916Y022220D01*
X009914Y022203D01*
X009910Y022186D01*
X009903Y022170D01*
X009893Y022156D01*
X009880Y022143D01*
X009866Y022133D01*
X009850Y022126D01*
X009833Y022122D01*
X009816Y022120D01*
X009116Y022120D01*
X009099Y022122D01*
X009082Y022126D01*
X009066Y022133D01*
X009052Y022143D01*
X009039Y022156D01*
X009029Y022170D01*
X009022Y022186D01*
X009018Y022203D01*
X009016Y022220D01*
X009016Y022370D01*
X009066Y022420D01*
X009066Y024320D01*
X009016Y024370D01*
X009016Y024520D01*
X009018Y024537D01*
X009022Y024554D01*
X009029Y024570D01*
X009039Y024584D01*
X009052Y024597D01*
X009066Y024607D01*
X009082Y024614D01*
X009099Y024618D01*
X009116Y024620D01*
X009816Y024620D01*
X009833Y024618D01*
X009850Y024614D01*
X009866Y024607D01*
X009880Y024597D01*
X009893Y024584D01*
X009903Y024570D01*
X009910Y024554D01*
X009914Y024537D01*
X009916Y024520D01*
X016646Y020662D02*
X016646Y020512D01*
X016696Y020462D01*
X016696Y018562D01*
X016646Y018512D01*
X016646Y018362D01*
X016648Y018345D01*
X016652Y018328D01*
X016659Y018312D01*
X016669Y018298D01*
X016682Y018285D01*
X016696Y018275D01*
X016712Y018268D01*
X016729Y018264D01*
X016746Y018262D01*
X017446Y018262D01*
X017463Y018264D01*
X017480Y018268D01*
X017496Y018275D01*
X017510Y018285D01*
X017523Y018298D01*
X017533Y018312D01*
X017540Y018328D01*
X017544Y018345D01*
X017546Y018362D01*
X017546Y018512D01*
X017496Y018562D01*
X017496Y020462D01*
X017546Y020512D01*
X017546Y020662D01*
X017544Y020679D01*
X017540Y020696D01*
X017533Y020712D01*
X017523Y020726D01*
X017510Y020739D01*
X017496Y020749D01*
X017480Y020756D01*
X017463Y020760D01*
X017446Y020762D01*
X016746Y020762D01*
X016729Y020760D01*
X016712Y020756D01*
X016696Y020749D01*
X016682Y020739D01*
X016669Y020726D01*
X016659Y020712D01*
X016652Y020696D01*
X016648Y020679D01*
X016646Y020662D01*
X012446Y019748D02*
X012446Y017448D01*
X008446Y017448D01*
X008446Y018198D01*
X008485Y018200D01*
X008524Y018206D01*
X008562Y018215D01*
X008599Y018228D01*
X008635Y018245D01*
X008668Y018265D01*
X008700Y018289D01*
X008729Y018315D01*
X008755Y018344D01*
X008779Y018376D01*
X008799Y018409D01*
X008816Y018445D01*
X008829Y018482D01*
X008838Y018520D01*
X008844Y018559D01*
X008846Y018598D01*
X008844Y018637D01*
X008838Y018676D01*
X008829Y018714D01*
X008816Y018751D01*
X008799Y018787D01*
X008779Y018820D01*
X008755Y018852D01*
X008729Y018881D01*
X008700Y018907D01*
X008668Y018931D01*
X008635Y018951D01*
X008599Y018968D01*
X008562Y018981D01*
X008524Y018990D01*
X008485Y018996D01*
X008446Y018998D01*
X008446Y019748D01*
X012446Y019748D01*
X006247Y015071D02*
X006247Y014921D01*
X006197Y014871D01*
X006197Y012971D01*
X006247Y012921D01*
X006247Y012771D01*
X006245Y012754D01*
X006241Y012737D01*
X006234Y012721D01*
X006224Y012707D01*
X006211Y012694D01*
X006197Y012684D01*
X006181Y012677D01*
X006164Y012673D01*
X006147Y012671D01*
X005447Y012671D01*
X005430Y012673D01*
X005413Y012677D01*
X005397Y012684D01*
X005383Y012694D01*
X005370Y012707D01*
X005360Y012721D01*
X005353Y012737D01*
X005349Y012754D01*
X005347Y012771D01*
X005347Y012921D01*
X005397Y012971D01*
X005397Y014871D01*
X005347Y014921D01*
X005347Y015071D01*
X005349Y015088D01*
X005353Y015105D01*
X005360Y015121D01*
X005370Y015135D01*
X005383Y015148D01*
X005397Y015158D01*
X005413Y015165D01*
X005430Y015169D01*
X005447Y015171D01*
X006147Y015171D01*
X006164Y015169D01*
X006181Y015165D01*
X006197Y015158D01*
X006211Y015148D01*
X006224Y015135D01*
X006234Y015121D01*
X006241Y015105D01*
X006245Y015088D01*
X006247Y015071D01*
X008339Y014008D02*
X008339Y013858D01*
X008389Y013808D01*
X008389Y011908D01*
X008339Y011858D01*
X008339Y011708D01*
X008341Y011691D01*
X008345Y011674D01*
X008352Y011658D01*
X008362Y011644D01*
X008375Y011631D01*
X008389Y011621D01*
X008405Y011614D01*
X008422Y011610D01*
X008439Y011608D01*
X009139Y011608D01*
X009156Y011610D01*
X009173Y011614D01*
X009189Y011621D01*
X009203Y011631D01*
X009216Y011644D01*
X009226Y011658D01*
X009233Y011674D01*
X009237Y011691D01*
X009239Y011708D01*
X009239Y011858D01*
X009189Y011908D01*
X009189Y013808D01*
X009239Y013858D01*
X009239Y014008D01*
X009237Y014025D01*
X009233Y014042D01*
X009226Y014058D01*
X009216Y014072D01*
X009203Y014085D01*
X009189Y014095D01*
X009173Y014102D01*
X009156Y014106D01*
X009139Y014108D01*
X008439Y014108D01*
X008422Y014106D01*
X008405Y014102D01*
X008389Y014095D01*
X008375Y014085D01*
X008362Y014072D01*
X008352Y014058D01*
X008345Y014042D01*
X008341Y014025D01*
X008339Y014008D01*
X004785Y012297D02*
X004085Y012297D01*
X004068Y012295D01*
X004051Y012291D01*
X004035Y012284D01*
X004021Y012274D01*
X004008Y012261D01*
X003998Y012247D01*
X003991Y012231D01*
X003987Y012214D01*
X003985Y012197D01*
X003985Y012047D01*
X004035Y011997D01*
X004035Y010097D01*
X003985Y010047D01*
X003985Y009897D01*
X003987Y009880D01*
X003991Y009863D01*
X003998Y009847D01*
X004008Y009833D01*
X004021Y009820D01*
X004035Y009810D01*
X004051Y009803D01*
X004068Y009799D01*
X004085Y009797D01*
X004785Y009797D01*
X004802Y009799D01*
X004819Y009803D01*
X004835Y009810D01*
X004849Y009820D01*
X004862Y009833D01*
X004872Y009847D01*
X004879Y009863D01*
X004883Y009880D01*
X004885Y009897D01*
X004885Y010047D01*
X004835Y010097D01*
X004835Y011997D01*
X004885Y012047D01*
X004885Y012197D01*
X004883Y012214D01*
X004879Y012231D01*
X004872Y012247D01*
X004862Y012261D01*
X004849Y012274D01*
X004835Y012284D01*
X004819Y012291D01*
X004802Y012295D01*
X004785Y012297D01*
X003499Y012276D02*
X003499Y012126D01*
X003449Y012076D01*
X003449Y010176D01*
X003499Y010126D01*
X003499Y009976D01*
X003497Y009959D01*
X003493Y009942D01*
X003486Y009926D01*
X003476Y009912D01*
X003463Y009899D01*
X003449Y009889D01*
X003433Y009882D01*
X003416Y009878D01*
X003399Y009876D01*
X002699Y009876D01*
X002682Y009878D01*
X002665Y009882D01*
X002649Y009889D01*
X002635Y009899D01*
X002622Y009912D01*
X002612Y009926D01*
X002605Y009942D01*
X002601Y009959D01*
X002599Y009976D01*
X002599Y010126D01*
X002649Y010176D01*
X002649Y012076D01*
X002599Y012126D01*
X002599Y012276D01*
X002601Y012293D01*
X002605Y012310D01*
X002612Y012326D01*
X002622Y012340D01*
X002635Y012353D01*
X002649Y012363D01*
X002665Y012370D01*
X002682Y012374D01*
X002699Y012376D01*
X003399Y012376D01*
X003416Y012374D01*
X003433Y012370D01*
X003449Y012363D01*
X003463Y012353D01*
X003476Y012340D01*
X003486Y012326D01*
X003493Y012310D01*
X003497Y012293D01*
X003499Y012276D01*
X007701Y009316D02*
X007701Y030116D01*
X012901Y030116D01*
X012901Y009316D01*
X010801Y009316D01*
X010799Y009360D01*
X010793Y009403D01*
X010784Y009445D01*
X010771Y009487D01*
X010754Y009527D01*
X010734Y009566D01*
X010711Y009603D01*
X010684Y009637D01*
X010655Y009670D01*
X010622Y009699D01*
X010588Y009726D01*
X010551Y009749D01*
X010512Y009769D01*
X010472Y009786D01*
X010430Y009799D01*
X010388Y009808D01*
X010345Y009814D01*
X010301Y009816D01*
X010257Y009814D01*
X010214Y009808D01*
X010172Y009799D01*
X010130Y009786D01*
X010090Y009769D01*
X010051Y009749D01*
X010014Y009726D01*
X009980Y009699D01*
X009947Y009670D01*
X009918Y009637D01*
X009891Y009603D01*
X009868Y009566D01*
X009848Y009527D01*
X009831Y009487D01*
X009818Y009445D01*
X009809Y009403D01*
X009803Y009360D01*
X009801Y009316D01*
X007701Y009316D01*
X011142Y007315D02*
X011142Y007165D01*
X011192Y007115D01*
X011192Y005215D01*
X011142Y005165D01*
X011142Y005015D01*
X011144Y004998D01*
X011148Y004981D01*
X011155Y004965D01*
X011165Y004951D01*
X011178Y004938D01*
X011192Y004928D01*
X011208Y004921D01*
X011225Y004917D01*
X011242Y004915D01*
X011942Y004915D01*
X011959Y004917D01*
X011976Y004921D01*
X011992Y004928D01*
X012006Y004938D01*
X012019Y004951D01*
X012029Y004965D01*
X012036Y004981D01*
X012040Y004998D01*
X012042Y005015D01*
X012042Y005165D01*
X011992Y005215D01*
X011992Y007115D01*
X012042Y007165D01*
X012042Y007315D01*
X012040Y007332D01*
X012036Y007349D01*
X012029Y007365D01*
X012019Y007379D01*
X012006Y007392D01*
X011992Y007402D01*
X011976Y007409D01*
X011959Y007413D01*
X011942Y007415D01*
X011242Y007415D01*
X011225Y007413D01*
X011208Y007409D01*
X011192Y007402D01*
X011178Y007392D01*
X011165Y007379D01*
X011155Y007365D01*
X011148Y007349D01*
X011144Y007332D01*
X011142Y007315D01*
X008999Y005764D02*
X009001Y005811D01*
X009007Y005857D01*
X009017Y005903D01*
X009030Y005947D01*
X009048Y005991D01*
X009069Y006032D01*
X009093Y006072D01*
X009121Y006110D01*
X009152Y006145D01*
X009186Y006177D01*
X009222Y006206D01*
X009261Y006232D01*
X009301Y006255D01*
X009344Y006274D01*
X009388Y006290D01*
X009433Y006302D01*
X009479Y006310D01*
X009526Y006314D01*
X009572Y006314D01*
X009619Y006310D01*
X009665Y006302D01*
X009710Y006290D01*
X009754Y006274D01*
X009797Y006255D01*
X009837Y006232D01*
X009876Y006206D01*
X009912Y006177D01*
X009946Y006145D01*
X009977Y006110D01*
X010005Y006072D01*
X010029Y006032D01*
X010050Y005991D01*
X010068Y005947D01*
X010081Y005903D01*
X010091Y005857D01*
X010097Y005811D01*
X010099Y005764D01*
X010097Y005717D01*
X010091Y005671D01*
X010081Y005625D01*
X010068Y005581D01*
X010050Y005537D01*
X010029Y005496D01*
X010005Y005456D01*
X009977Y005418D01*
X009946Y005383D01*
X009912Y005351D01*
X009876Y005322D01*
X009837Y005296D01*
X009797Y005273D01*
X009754Y005254D01*
X009710Y005238D01*
X009665Y005226D01*
X009619Y005218D01*
X009572Y005214D01*
X009526Y005214D01*
X009479Y005218D01*
X009433Y005226D01*
X009388Y005238D01*
X009344Y005254D01*
X009301Y005273D01*
X009261Y005296D01*
X009222Y005322D01*
X009186Y005351D01*
X009152Y005383D01*
X009121Y005418D01*
X009093Y005456D01*
X009069Y005496D01*
X009048Y005537D01*
X009030Y005581D01*
X009017Y005625D01*
X009007Y005671D01*
X009001Y005717D01*
X008999Y005764D01*
X007651Y005760D02*
X007653Y005799D01*
X007659Y005838D01*
X007669Y005876D01*
X007682Y005913D01*
X007699Y005948D01*
X007719Y005982D01*
X007743Y006013D01*
X007770Y006042D01*
X007799Y006068D01*
X007831Y006091D01*
X007865Y006111D01*
X007901Y006127D01*
X007938Y006139D01*
X007977Y006148D01*
X008016Y006153D01*
X008055Y006154D01*
X008094Y006151D01*
X008133Y006144D01*
X008170Y006133D01*
X008207Y006119D01*
X008242Y006101D01*
X008275Y006080D01*
X008306Y006055D01*
X008334Y006028D01*
X008359Y005998D01*
X008381Y005965D01*
X008400Y005931D01*
X008415Y005895D01*
X008427Y005857D01*
X008435Y005819D01*
X008439Y005780D01*
X008439Y005740D01*
X008435Y005701D01*
X008427Y005663D01*
X008415Y005625D01*
X008400Y005589D01*
X008381Y005555D01*
X008359Y005522D01*
X008334Y005492D01*
X008306Y005465D01*
X008275Y005440D01*
X008242Y005419D01*
X008207Y005401D01*
X008170Y005387D01*
X008133Y005376D01*
X008094Y005369D01*
X008055Y005366D01*
X008016Y005367D01*
X007977Y005372D01*
X007938Y005381D01*
X007901Y005393D01*
X007865Y005409D01*
X007831Y005429D01*
X007799Y005452D01*
X007770Y005478D01*
X007743Y005507D01*
X007719Y005538D01*
X007699Y005572D01*
X007682Y005607D01*
X007669Y005644D01*
X007659Y005682D01*
X007653Y005721D01*
X007651Y005760D01*
X005683Y005760D02*
X005686Y005876D01*
X005694Y005992D01*
X005709Y006107D01*
X005728Y006221D01*
X005754Y006334D01*
X005785Y006446D01*
X005821Y006556D01*
X005863Y006664D01*
X005910Y006770D01*
X005962Y006873D01*
X006019Y006974D01*
X006081Y007072D01*
X006148Y007167D01*
X006219Y007258D01*
X006295Y007346D01*
X006375Y007430D01*
X006459Y007510D01*
X006547Y007586D01*
X006638Y007657D01*
X006733Y007724D01*
X006831Y007786D01*
X006932Y007843D01*
X007035Y007895D01*
X007141Y007942D01*
X007249Y007984D01*
X007359Y008020D01*
X007471Y008051D01*
X007584Y008077D01*
X007698Y008096D01*
X007813Y008111D01*
X007929Y008119D01*
X008045Y008122D01*
X008161Y008119D01*
X008277Y008111D01*
X008392Y008096D01*
X008506Y008077D01*
X008619Y008051D01*
X008731Y008020D01*
X008841Y007984D01*
X008949Y007942D01*
X009055Y007895D01*
X009158Y007843D01*
X009259Y007786D01*
X009357Y007724D01*
X009452Y007657D01*
X009543Y007586D01*
X009631Y007510D01*
X009715Y007430D01*
X009795Y007346D01*
X009871Y007258D01*
X009942Y007167D01*
X010009Y007072D01*
X010071Y006974D01*
X010128Y006873D01*
X010180Y006770D01*
X010227Y006664D01*
X010269Y006556D01*
X010305Y006446D01*
X010336Y006334D01*
X010362Y006221D01*
X010381Y006107D01*
X010396Y005992D01*
X010404Y005876D01*
X010407Y005760D01*
X010404Y005644D01*
X010396Y005528D01*
X010381Y005413D01*
X010362Y005299D01*
X010336Y005186D01*
X010305Y005074D01*
X010269Y004964D01*
X010227Y004856D01*
X010180Y004750D01*
X010128Y004647D01*
X010071Y004546D01*
X010009Y004448D01*
X009942Y004353D01*
X009871Y004262D01*
X009795Y004174D01*
X009715Y004090D01*
X009631Y004010D01*
X009543Y003934D01*
X009452Y003863D01*
X009357Y003796D01*
X009259Y003734D01*
X009158Y003677D01*
X009055Y003625D01*
X008949Y003578D01*
X008841Y003536D01*
X008731Y003500D01*
X008619Y003469D01*
X008506Y003443D01*
X008392Y003424D01*
X008277Y003409D01*
X008161Y003401D01*
X008045Y003398D01*
X007929Y003401D01*
X007813Y003409D01*
X007698Y003424D01*
X007584Y003443D01*
X007471Y003469D01*
X007359Y003500D01*
X007249Y003536D01*
X007141Y003578D01*
X007035Y003625D01*
X006932Y003677D01*
X006831Y003734D01*
X006733Y003796D01*
X006638Y003863D01*
X006547Y003934D01*
X006459Y004010D01*
X006375Y004090D01*
X006295Y004174D01*
X006219Y004262D01*
X006148Y004353D01*
X006081Y004448D01*
X006019Y004546D01*
X005962Y004647D01*
X005910Y004750D01*
X005863Y004856D01*
X005821Y004964D01*
X005785Y005074D01*
X005754Y005186D01*
X005728Y005299D01*
X005709Y005413D01*
X005694Y005528D01*
X005686Y005644D01*
X005683Y005760D01*
X009431Y003149D02*
X009433Y003212D01*
X009439Y003274D01*
X009449Y003336D01*
X009462Y003398D01*
X009480Y003458D01*
X009501Y003517D01*
X009526Y003575D01*
X009555Y003631D01*
X009587Y003685D01*
X009622Y003737D01*
X009660Y003786D01*
X009702Y003834D01*
X009746Y003878D01*
X009794Y003920D01*
X009843Y003958D01*
X009895Y003993D01*
X009949Y004025D01*
X010005Y004054D01*
X010063Y004079D01*
X010122Y004100D01*
X010182Y004118D01*
X010244Y004131D01*
X010306Y004141D01*
X010368Y004147D01*
X010431Y004149D01*
X010494Y004147D01*
X010556Y004141D01*
X010618Y004131D01*
X010680Y004118D01*
X010740Y004100D01*
X010799Y004079D01*
X010857Y004054D01*
X010913Y004025D01*
X010967Y003993D01*
X011019Y003958D01*
X011068Y003920D01*
X011116Y003878D01*
X011160Y003834D01*
X011202Y003786D01*
X011240Y003737D01*
X011275Y003685D01*
X011307Y003631D01*
X011336Y003575D01*
X011361Y003517D01*
X011382Y003458D01*
X011400Y003398D01*
X011413Y003336D01*
X011423Y003274D01*
X011429Y003212D01*
X011431Y003149D01*
X011429Y003086D01*
X011423Y003024D01*
X011413Y002962D01*
X011400Y002900D01*
X011382Y002840D01*
X011361Y002781D01*
X011336Y002723D01*
X011307Y002667D01*
X011275Y002613D01*
X011240Y002561D01*
X011202Y002512D01*
X011160Y002464D01*
X011116Y002420D01*
X011068Y002378D01*
X011019Y002340D01*
X010967Y002305D01*
X010913Y002273D01*
X010857Y002244D01*
X010799Y002219D01*
X010740Y002198D01*
X010680Y002180D01*
X010618Y002167D01*
X010556Y002157D01*
X010494Y002151D01*
X010431Y002149D01*
X010368Y002151D01*
X010306Y002157D01*
X010244Y002167D01*
X010182Y002180D01*
X010122Y002198D01*
X010063Y002219D01*
X010005Y002244D01*
X009949Y002273D01*
X009895Y002305D01*
X009843Y002340D01*
X009794Y002378D01*
X009746Y002420D01*
X009702Y002464D01*
X009660Y002512D01*
X009622Y002561D01*
X009587Y002613D01*
X009555Y002667D01*
X009526Y002723D01*
X009501Y002781D01*
X009480Y002840D01*
X009462Y002900D01*
X009449Y002962D01*
X009439Y003024D01*
X009433Y003086D01*
X009431Y003149D01*
X011031Y003549D02*
X011231Y003549D01*
X011131Y003649D02*
X011131Y003449D01*
X014163Y006700D02*
X014163Y007450D01*
X014202Y007452D01*
X014241Y007458D01*
X014279Y007467D01*
X014316Y007480D01*
X014352Y007497D01*
X014385Y007517D01*
X014417Y007541D01*
X014446Y007567D01*
X014472Y007596D01*
X014496Y007628D01*
X014516Y007661D01*
X014533Y007697D01*
X014546Y007734D01*
X014555Y007772D01*
X014561Y007811D01*
X014563Y007850D01*
X014561Y007889D01*
X014555Y007928D01*
X014546Y007966D01*
X014533Y008003D01*
X014516Y008039D01*
X014496Y008072D01*
X014472Y008104D01*
X014446Y008133D01*
X014417Y008159D01*
X014385Y008183D01*
X014352Y008203D01*
X014316Y008220D01*
X014279Y008233D01*
X014241Y008242D01*
X014202Y008248D01*
X014163Y008250D01*
X014163Y009000D01*
X022163Y009000D01*
X022163Y006700D01*
X014163Y006700D01*
X022402Y011629D02*
X022402Y011779D01*
X022452Y011829D01*
X022452Y013729D01*
X022402Y013779D01*
X022402Y013929D01*
X022404Y013946D01*
X022408Y013963D01*
X022415Y013979D01*
X022425Y013993D01*
X022438Y014006D01*
X022452Y014016D01*
X022468Y014023D01*
X022485Y014027D01*
X022502Y014029D01*
X023202Y014029D01*
X023219Y014027D01*
X023236Y014023D01*
X023252Y014016D01*
X023266Y014006D01*
X023279Y013993D01*
X023289Y013979D01*
X023296Y013963D01*
X023300Y013946D01*
X023302Y013929D01*
X023302Y013779D01*
X023252Y013729D01*
X023252Y011829D01*
X023302Y011779D01*
X023302Y011629D01*
X023300Y011612D01*
X023296Y011595D01*
X023289Y011579D01*
X023279Y011565D01*
X023266Y011552D01*
X023252Y011542D01*
X023236Y011535D01*
X023219Y011531D01*
X023202Y011529D01*
X022502Y011529D01*
X022485Y011531D01*
X022468Y011535D01*
X022452Y011542D01*
X022438Y011552D01*
X022425Y011565D01*
X022415Y011579D01*
X022408Y011595D01*
X022404Y011612D01*
X022402Y011629D01*
X023583Y011661D02*
X023583Y011511D01*
X023585Y011494D01*
X023589Y011477D01*
X023596Y011461D01*
X023606Y011447D01*
X023619Y011434D01*
X023633Y011424D01*
X023649Y011417D01*
X023666Y011413D01*
X023683Y011411D01*
X024383Y011411D01*
X024400Y011413D01*
X024417Y011417D01*
X024433Y011424D01*
X024447Y011434D01*
X024460Y011447D01*
X024470Y011461D01*
X024477Y011477D01*
X024481Y011494D01*
X024483Y011511D01*
X024483Y011661D01*
X024433Y011711D01*
X024433Y013611D01*
X024483Y013661D01*
X024483Y013811D01*
X024481Y013828D01*
X024477Y013845D01*
X024470Y013861D01*
X024460Y013875D01*
X024447Y013888D01*
X024433Y013898D01*
X024417Y013905D01*
X024400Y013909D01*
X024383Y013911D01*
X023683Y013911D01*
X023666Y013909D01*
X023649Y013905D01*
X023633Y013898D01*
X023619Y013888D01*
X023606Y013875D01*
X023596Y013861D01*
X023589Y013845D01*
X023585Y013828D01*
X023583Y013811D01*
X023583Y013661D01*
X023633Y013611D01*
X023633Y011711D01*
X023583Y011661D01*
X024804Y011661D02*
X024804Y011511D01*
X024806Y011494D01*
X024810Y011477D01*
X024817Y011461D01*
X024827Y011447D01*
X024840Y011434D01*
X024854Y011424D01*
X024870Y011417D01*
X024887Y011413D01*
X024904Y011411D01*
X025604Y011411D01*
X025621Y011413D01*
X025638Y011417D01*
X025654Y011424D01*
X025668Y011434D01*
X025681Y011447D01*
X025691Y011461D01*
X025698Y011477D01*
X025702Y011494D01*
X025704Y011511D01*
X025704Y011661D01*
X025654Y011711D01*
X025654Y013611D01*
X025704Y013661D01*
X025704Y013811D01*
X025702Y013828D01*
X025698Y013845D01*
X025691Y013861D01*
X025681Y013875D01*
X025668Y013888D01*
X025654Y013898D01*
X025638Y013905D01*
X025621Y013909D01*
X025604Y013911D01*
X024904Y013911D01*
X024887Y013909D01*
X024870Y013905D01*
X024854Y013898D01*
X024840Y013888D01*
X024827Y013875D01*
X024817Y013861D01*
X024810Y013845D01*
X024806Y013828D01*
X024804Y013811D01*
X024804Y013661D01*
X024854Y013611D01*
X024854Y011711D01*
X024804Y011661D01*
X026506Y013386D02*
X026508Y013449D01*
X026514Y013511D01*
X026524Y013573D01*
X026537Y013635D01*
X026555Y013695D01*
X026576Y013754D01*
X026601Y013812D01*
X026630Y013868D01*
X026662Y013922D01*
X026697Y013974D01*
X026735Y014023D01*
X026777Y014071D01*
X026821Y014115D01*
X026869Y014157D01*
X026918Y014195D01*
X026970Y014230D01*
X027024Y014262D01*
X027080Y014291D01*
X027138Y014316D01*
X027197Y014337D01*
X027257Y014355D01*
X027319Y014368D01*
X027381Y014378D01*
X027443Y014384D01*
X027506Y014386D01*
X027569Y014384D01*
X027631Y014378D01*
X027693Y014368D01*
X027755Y014355D01*
X027815Y014337D01*
X027874Y014316D01*
X027932Y014291D01*
X027988Y014262D01*
X028042Y014230D01*
X028094Y014195D01*
X028143Y014157D01*
X028191Y014115D01*
X028235Y014071D01*
X028277Y014023D01*
X028315Y013974D01*
X028350Y013922D01*
X028382Y013868D01*
X028411Y013812D01*
X028436Y013754D01*
X028457Y013695D01*
X028475Y013635D01*
X028488Y013573D01*
X028498Y013511D01*
X028504Y013449D01*
X028506Y013386D01*
X028504Y013323D01*
X028498Y013261D01*
X028488Y013199D01*
X028475Y013137D01*
X028457Y013077D01*
X028436Y013018D01*
X028411Y012960D01*
X028382Y012904D01*
X028350Y012850D01*
X028315Y012798D01*
X028277Y012749D01*
X028235Y012701D01*
X028191Y012657D01*
X028143Y012615D01*
X028094Y012577D01*
X028042Y012542D01*
X027988Y012510D01*
X027932Y012481D01*
X027874Y012456D01*
X027815Y012435D01*
X027755Y012417D01*
X027693Y012404D01*
X027631Y012394D01*
X027569Y012388D01*
X027506Y012386D01*
X027443Y012388D01*
X027381Y012394D01*
X027319Y012404D01*
X027257Y012417D01*
X027197Y012435D01*
X027138Y012456D01*
X027080Y012481D01*
X027024Y012510D01*
X026970Y012542D01*
X026918Y012577D01*
X026869Y012615D01*
X026821Y012657D01*
X026777Y012701D01*
X026735Y012749D01*
X026697Y012798D01*
X026662Y012850D01*
X026630Y012904D01*
X026601Y012960D01*
X026576Y013018D01*
X026555Y013077D01*
X026537Y013137D01*
X026524Y013199D01*
X026514Y013261D01*
X026508Y013323D01*
X026506Y013386D01*
X029048Y013661D02*
X029098Y013611D01*
X029098Y011711D01*
X029048Y011661D01*
X029048Y011511D01*
X029050Y011494D01*
X029054Y011477D01*
X029061Y011461D01*
X029071Y011447D01*
X029084Y011434D01*
X029098Y011424D01*
X029114Y011417D01*
X029131Y011413D01*
X029148Y011411D01*
X029848Y011411D01*
X029865Y011413D01*
X029882Y011417D01*
X029898Y011424D01*
X029912Y011434D01*
X029925Y011447D01*
X029935Y011461D01*
X029942Y011477D01*
X029946Y011494D01*
X029948Y011511D01*
X029948Y011661D01*
X029898Y011711D01*
X029898Y013611D01*
X029948Y013661D01*
X029948Y013811D01*
X029946Y013828D01*
X029942Y013845D01*
X029935Y013861D01*
X029925Y013875D01*
X029912Y013888D01*
X029898Y013898D01*
X029882Y013905D01*
X029865Y013909D01*
X029848Y013911D01*
X029148Y013911D01*
X029131Y013909D01*
X029114Y013905D01*
X029098Y013898D01*
X029084Y013888D01*
X029071Y013875D01*
X029061Y013861D01*
X029054Y013845D01*
X029050Y013828D01*
X029048Y013811D01*
X029048Y013661D01*
X030998Y017023D02*
X031000Y017086D01*
X031006Y017148D01*
X031016Y017210D01*
X031029Y017272D01*
X031047Y017332D01*
X031068Y017391D01*
X031093Y017449D01*
X031122Y017505D01*
X031154Y017559D01*
X031189Y017611D01*
X031227Y017660D01*
X031269Y017708D01*
X031313Y017752D01*
X031361Y017794D01*
X031410Y017832D01*
X031462Y017867D01*
X031516Y017899D01*
X031572Y017928D01*
X031630Y017953D01*
X031689Y017974D01*
X031749Y017992D01*
X031811Y018005D01*
X031873Y018015D01*
X031935Y018021D01*
X031998Y018023D01*
X032061Y018021D01*
X032123Y018015D01*
X032185Y018005D01*
X032247Y017992D01*
X032307Y017974D01*
X032366Y017953D01*
X032424Y017928D01*
X032480Y017899D01*
X032534Y017867D01*
X032586Y017832D01*
X032635Y017794D01*
X032683Y017752D01*
X032727Y017708D01*
X032769Y017660D01*
X032807Y017611D01*
X032842Y017559D01*
X032874Y017505D01*
X032903Y017449D01*
X032928Y017391D01*
X032949Y017332D01*
X032967Y017272D01*
X032980Y017210D01*
X032990Y017148D01*
X032996Y017086D01*
X032998Y017023D01*
X032996Y016960D01*
X032990Y016898D01*
X032980Y016836D01*
X032967Y016774D01*
X032949Y016714D01*
X032928Y016655D01*
X032903Y016597D01*
X032874Y016541D01*
X032842Y016487D01*
X032807Y016435D01*
X032769Y016386D01*
X032727Y016338D01*
X032683Y016294D01*
X032635Y016252D01*
X032586Y016214D01*
X032534Y016179D01*
X032480Y016147D01*
X032424Y016118D01*
X032366Y016093D01*
X032307Y016072D01*
X032247Y016054D01*
X032185Y016041D01*
X032123Y016031D01*
X032061Y016025D01*
X031998Y016023D01*
X031935Y016025D01*
X031873Y016031D01*
X031811Y016041D01*
X031749Y016054D01*
X031689Y016072D01*
X031630Y016093D01*
X031572Y016118D01*
X031516Y016147D01*
X031462Y016179D01*
X031410Y016214D01*
X031361Y016252D01*
X031313Y016294D01*
X031269Y016338D01*
X031227Y016386D01*
X031189Y016435D01*
X031154Y016487D01*
X031122Y016541D01*
X031093Y016597D01*
X031068Y016655D01*
X031047Y016714D01*
X031029Y016774D01*
X031016Y016836D01*
X031006Y016898D01*
X031000Y016960D01*
X030998Y017023D01*
X035679Y013346D02*
X035681Y013409D01*
X035687Y013471D01*
X035697Y013533D01*
X035710Y013595D01*
X035728Y013655D01*
X035749Y013714D01*
X035774Y013772D01*
X035803Y013828D01*
X035835Y013882D01*
X035870Y013934D01*
X035908Y013983D01*
X035950Y014031D01*
X035994Y014075D01*
X036042Y014117D01*
X036091Y014155D01*
X036143Y014190D01*
X036197Y014222D01*
X036253Y014251D01*
X036311Y014276D01*
X036370Y014297D01*
X036430Y014315D01*
X036492Y014328D01*
X036554Y014338D01*
X036616Y014344D01*
X036679Y014346D01*
X036742Y014344D01*
X036804Y014338D01*
X036866Y014328D01*
X036928Y014315D01*
X036988Y014297D01*
X037047Y014276D01*
X037105Y014251D01*
X037161Y014222D01*
X037215Y014190D01*
X037267Y014155D01*
X037316Y014117D01*
X037364Y014075D01*
X037408Y014031D01*
X037450Y013983D01*
X037488Y013934D01*
X037523Y013882D01*
X037555Y013828D01*
X037584Y013772D01*
X037609Y013714D01*
X037630Y013655D01*
X037648Y013595D01*
X037661Y013533D01*
X037671Y013471D01*
X037677Y013409D01*
X037679Y013346D01*
X037677Y013283D01*
X037671Y013221D01*
X037661Y013159D01*
X037648Y013097D01*
X037630Y013037D01*
X037609Y012978D01*
X037584Y012920D01*
X037555Y012864D01*
X037523Y012810D01*
X037488Y012758D01*
X037450Y012709D01*
X037408Y012661D01*
X037364Y012617D01*
X037316Y012575D01*
X037267Y012537D01*
X037215Y012502D01*
X037161Y012470D01*
X037105Y012441D01*
X037047Y012416D01*
X036988Y012395D01*
X036928Y012377D01*
X036866Y012364D01*
X036804Y012354D01*
X036742Y012348D01*
X036679Y012346D01*
X036616Y012348D01*
X036554Y012354D01*
X036492Y012364D01*
X036430Y012377D01*
X036370Y012395D01*
X036311Y012416D01*
X036253Y012441D01*
X036197Y012470D01*
X036143Y012502D01*
X036091Y012537D01*
X036042Y012575D01*
X035994Y012617D01*
X035950Y012661D01*
X035908Y012709D01*
X035870Y012758D01*
X035835Y012810D01*
X035803Y012864D01*
X035774Y012920D01*
X035749Y012978D01*
X035728Y013037D01*
X035710Y013097D01*
X035697Y013159D01*
X035687Y013221D01*
X035681Y013283D01*
X035679Y013346D01*
X038142Y013701D02*
X038142Y013851D01*
X038144Y013868D01*
X038148Y013885D01*
X038155Y013901D01*
X038165Y013915D01*
X038178Y013928D01*
X038192Y013938D01*
X038208Y013945D01*
X038225Y013949D01*
X038242Y013951D01*
X038942Y013951D01*
X038959Y013949D01*
X038976Y013945D01*
X038992Y013938D01*
X039006Y013928D01*
X039019Y013915D01*
X039029Y013901D01*
X039036Y013885D01*
X039040Y013868D01*
X039042Y013851D01*
X039042Y013701D01*
X038992Y013651D01*
X038992Y011751D01*
X039042Y011701D01*
X039042Y011551D01*
X039040Y011534D01*
X039036Y011517D01*
X039029Y011501D01*
X039019Y011487D01*
X039006Y011474D01*
X038992Y011464D01*
X038976Y011457D01*
X038959Y011453D01*
X038942Y011451D01*
X038242Y011451D01*
X038225Y011453D01*
X038208Y011457D01*
X038192Y011464D01*
X038178Y011474D01*
X038165Y011487D01*
X038155Y011501D01*
X038148Y011517D01*
X038144Y011534D01*
X038142Y011551D01*
X038142Y011701D01*
X038192Y011751D01*
X038192Y013651D01*
X038142Y013701D01*
X039331Y013740D02*
X039381Y013690D01*
X039381Y011790D01*
X039331Y011740D01*
X039331Y011590D01*
X039333Y011573D01*
X039337Y011556D01*
X039344Y011540D01*
X039354Y011526D01*
X039367Y011513D01*
X039381Y011503D01*
X039397Y011496D01*
X039414Y011492D01*
X039431Y011490D01*
X040131Y011490D01*
X040148Y011492D01*
X040165Y011496D01*
X040181Y011503D01*
X040195Y011513D01*
X040208Y011526D01*
X040218Y011540D01*
X040225Y011556D01*
X040229Y011573D01*
X040231Y011590D01*
X040231Y011740D01*
X040181Y011790D01*
X040181Y013690D01*
X040231Y013740D01*
X040231Y013890D01*
X040229Y013907D01*
X040225Y013924D01*
X040218Y013940D01*
X040208Y013954D01*
X040195Y013967D01*
X040181Y013977D01*
X040165Y013984D01*
X040148Y013988D01*
X040131Y013990D01*
X039431Y013990D01*
X039414Y013988D01*
X039397Y013984D01*
X039381Y013977D01*
X039367Y013967D01*
X039354Y013954D01*
X039344Y013940D01*
X039337Y013924D01*
X039333Y013907D01*
X039331Y013890D01*
X039331Y013740D01*
X040363Y013772D02*
X040363Y013622D01*
X040413Y013572D01*
X040413Y011672D01*
X040363Y011622D01*
X040363Y011472D01*
X040365Y011455D01*
X040369Y011438D01*
X040376Y011422D01*
X040386Y011408D01*
X040399Y011395D01*
X040413Y011385D01*
X040429Y011378D01*
X040446Y011374D01*
X040463Y011372D01*
X041163Y011372D01*
X041180Y011374D01*
X041197Y011378D01*
X041213Y011385D01*
X041227Y011395D01*
X041240Y011408D01*
X041250Y011422D01*
X041257Y011438D01*
X041261Y011455D01*
X041263Y011472D01*
X041263Y011622D01*
X041213Y011672D01*
X041213Y013572D01*
X041263Y013622D01*
X041263Y013772D01*
X041261Y013789D01*
X041257Y013806D01*
X041250Y013822D01*
X041240Y013836D01*
X041227Y013849D01*
X041213Y013859D01*
X041197Y013866D01*
X041180Y013870D01*
X041163Y013872D01*
X040463Y013872D01*
X040446Y013870D01*
X040429Y013866D01*
X040413Y013859D01*
X040399Y013849D01*
X040386Y013836D01*
X040376Y013822D01*
X040369Y013806D01*
X040365Y013789D01*
X040363Y013772D01*
X041702Y013307D02*
X041704Y013370D01*
X041710Y013432D01*
X041720Y013494D01*
X041733Y013556D01*
X041751Y013616D01*
X041772Y013675D01*
X041797Y013733D01*
X041826Y013789D01*
X041858Y013843D01*
X041893Y013895D01*
X041931Y013944D01*
X041973Y013992D01*
X042017Y014036D01*
X042065Y014078D01*
X042114Y014116D01*
X042166Y014151D01*
X042220Y014183D01*
X042276Y014212D01*
X042334Y014237D01*
X042393Y014258D01*
X042453Y014276D01*
X042515Y014289D01*
X042577Y014299D01*
X042639Y014305D01*
X042702Y014307D01*
X042765Y014305D01*
X042827Y014299D01*
X042889Y014289D01*
X042951Y014276D01*
X043011Y014258D01*
X043070Y014237D01*
X043128Y014212D01*
X043184Y014183D01*
X043238Y014151D01*
X043290Y014116D01*
X043339Y014078D01*
X043387Y014036D01*
X043431Y013992D01*
X043473Y013944D01*
X043511Y013895D01*
X043546Y013843D01*
X043578Y013789D01*
X043607Y013733D01*
X043632Y013675D01*
X043653Y013616D01*
X043671Y013556D01*
X043684Y013494D01*
X043694Y013432D01*
X043700Y013370D01*
X043702Y013307D01*
X043700Y013244D01*
X043694Y013182D01*
X043684Y013120D01*
X043671Y013058D01*
X043653Y012998D01*
X043632Y012939D01*
X043607Y012881D01*
X043578Y012825D01*
X043546Y012771D01*
X043511Y012719D01*
X043473Y012670D01*
X043431Y012622D01*
X043387Y012578D01*
X043339Y012536D01*
X043290Y012498D01*
X043238Y012463D01*
X043184Y012431D01*
X043128Y012402D01*
X043070Y012377D01*
X043011Y012356D01*
X042951Y012338D01*
X042889Y012325D01*
X042827Y012315D01*
X042765Y012309D01*
X042702Y012307D01*
X042639Y012309D01*
X042577Y012315D01*
X042515Y012325D01*
X042453Y012338D01*
X042393Y012356D01*
X042334Y012377D01*
X042276Y012402D01*
X042220Y012431D01*
X042166Y012463D01*
X042114Y012498D01*
X042065Y012536D01*
X042017Y012578D01*
X041973Y012622D01*
X041931Y012670D01*
X041893Y012719D01*
X041858Y012771D01*
X041826Y012825D01*
X041797Y012881D01*
X041772Y012939D01*
X041751Y012998D01*
X041733Y013058D01*
X041720Y013120D01*
X041710Y013182D01*
X041704Y013244D01*
X041702Y013307D01*
X046635Y012914D02*
X046635Y010614D01*
X054635Y010614D01*
X054635Y011364D01*
X054596Y011366D01*
X054557Y011372D01*
X054519Y011381D01*
X054482Y011394D01*
X054446Y011411D01*
X054413Y011431D01*
X054381Y011455D01*
X054352Y011481D01*
X054326Y011510D01*
X054302Y011542D01*
X054282Y011575D01*
X054265Y011611D01*
X054252Y011648D01*
X054243Y011686D01*
X054237Y011725D01*
X054235Y011764D01*
X054237Y011803D01*
X054243Y011842D01*
X054252Y011880D01*
X054265Y011917D01*
X054282Y011953D01*
X054302Y011986D01*
X054326Y012018D01*
X054352Y012047D01*
X054381Y012073D01*
X054413Y012097D01*
X054446Y012117D01*
X054482Y012134D01*
X054519Y012147D01*
X054557Y012156D01*
X054596Y012162D01*
X054635Y012164D01*
X054635Y012914D01*
X046635Y012914D01*
X046667Y007730D02*
X045967Y007730D01*
X045950Y007728D01*
X045933Y007724D01*
X045917Y007717D01*
X045903Y007707D01*
X045890Y007694D01*
X045880Y007680D01*
X045873Y007664D01*
X045869Y007647D01*
X045867Y007630D01*
X045867Y007480D01*
X045917Y007430D01*
X045917Y005530D01*
X045867Y005480D01*
X045867Y005330D01*
X045869Y005313D01*
X045873Y005296D01*
X045880Y005280D01*
X045890Y005266D01*
X045903Y005253D01*
X045917Y005243D01*
X045933Y005236D01*
X045950Y005232D01*
X045967Y005230D01*
X046667Y005230D01*
X046684Y005232D01*
X046701Y005236D01*
X046717Y005243D01*
X046731Y005253D01*
X046744Y005266D01*
X046754Y005280D01*
X046761Y005296D01*
X046765Y005313D01*
X046767Y005330D01*
X046767Y005480D01*
X046717Y005530D01*
X046717Y007430D01*
X046767Y007480D01*
X046767Y007630D01*
X046765Y007647D01*
X046761Y007664D01*
X046754Y007680D01*
X046744Y007694D01*
X046731Y007707D01*
X046717Y007717D01*
X046701Y007724D01*
X046684Y007728D01*
X046667Y007730D01*
X045113Y007630D02*
X045113Y007480D01*
X045063Y007430D01*
X045063Y005530D01*
X045113Y005480D01*
X045113Y005330D01*
X045111Y005313D01*
X045107Y005296D01*
X045100Y005280D01*
X045090Y005266D01*
X045077Y005253D01*
X045063Y005243D01*
X045047Y005236D01*
X045030Y005232D01*
X045013Y005230D01*
X044313Y005230D01*
X044296Y005232D01*
X044279Y005236D01*
X044263Y005243D01*
X044249Y005253D01*
X044236Y005266D01*
X044226Y005280D01*
X044219Y005296D01*
X044215Y005313D01*
X044213Y005330D01*
X044213Y005480D01*
X044263Y005530D01*
X044263Y007430D01*
X044213Y007480D01*
X044213Y007630D01*
X044215Y007647D01*
X044219Y007664D01*
X044226Y007680D01*
X044236Y007694D01*
X044249Y007707D01*
X044263Y007717D01*
X044279Y007724D01*
X044296Y007728D01*
X044313Y007730D01*
X045013Y007730D01*
X045030Y007728D01*
X045047Y007724D01*
X045063Y007717D01*
X045077Y007707D01*
X045090Y007694D01*
X045100Y007680D01*
X045107Y007664D01*
X045111Y007647D01*
X045113Y007630D01*
X043578Y007670D02*
X043578Y007520D01*
X043528Y007470D01*
X043528Y005570D01*
X043578Y005520D01*
X043578Y005370D01*
X043576Y005353D01*
X043572Y005336D01*
X043565Y005320D01*
X043555Y005306D01*
X043542Y005293D01*
X043528Y005283D01*
X043512Y005276D01*
X043495Y005272D01*
X043478Y005270D01*
X042778Y005270D01*
X042761Y005272D01*
X042744Y005276D01*
X042728Y005283D01*
X042714Y005293D01*
X042701Y005306D01*
X042691Y005320D01*
X042684Y005336D01*
X042680Y005353D01*
X042678Y005370D01*
X042678Y005520D01*
X042728Y005570D01*
X042728Y007470D01*
X042678Y007520D01*
X042678Y007670D01*
X042680Y007687D01*
X042684Y007704D01*
X042691Y007720D01*
X042701Y007734D01*
X042714Y007747D01*
X042728Y007757D01*
X042744Y007764D01*
X042761Y007768D01*
X042778Y007770D01*
X043478Y007770D01*
X043495Y007768D01*
X043512Y007764D01*
X043528Y007757D01*
X043542Y007747D01*
X043555Y007734D01*
X043565Y007720D01*
X043572Y007704D01*
X043576Y007687D01*
X043578Y007670D01*
X042278Y007638D02*
X042278Y007788D01*
X042276Y007805D01*
X042272Y007822D01*
X042265Y007838D01*
X042255Y007852D01*
X042242Y007865D01*
X042228Y007875D01*
X042212Y007882D01*
X042195Y007886D01*
X042178Y007888D01*
X041478Y007888D01*
X041461Y007886D01*
X041444Y007882D01*
X041428Y007875D01*
X041414Y007865D01*
X041401Y007852D01*
X041391Y007838D01*
X041384Y007822D01*
X041380Y007805D01*
X041378Y007788D01*
X041378Y007638D01*
X041428Y007588D01*
X041428Y005688D01*
X041378Y005638D01*
X041378Y005488D01*
X041380Y005471D01*
X041384Y005454D01*
X041391Y005438D01*
X041401Y005424D01*
X041414Y005411D01*
X041428Y005401D01*
X041444Y005394D01*
X041461Y005390D01*
X041478Y005388D01*
X042178Y005388D01*
X042195Y005390D01*
X042212Y005394D01*
X042228Y005401D01*
X042242Y005411D01*
X042255Y005424D01*
X042265Y005438D01*
X042272Y005454D01*
X042276Y005471D01*
X042278Y005488D01*
X042278Y005638D01*
X042228Y005688D01*
X042228Y007588D01*
X042278Y007638D01*
X040940Y007709D02*
X040940Y007559D01*
X040890Y007509D01*
X040890Y005609D01*
X040940Y005559D01*
X040940Y005409D01*
X040938Y005392D01*
X040934Y005375D01*
X040927Y005359D01*
X040917Y005345D01*
X040904Y005332D01*
X040890Y005322D01*
X040874Y005315D01*
X040857Y005311D01*
X040840Y005309D01*
X040140Y005309D01*
X040123Y005311D01*
X040106Y005315D01*
X040090Y005322D01*
X040076Y005332D01*
X040063Y005345D01*
X040053Y005359D01*
X040046Y005375D01*
X040042Y005392D01*
X040040Y005409D01*
X040040Y005559D01*
X040090Y005609D01*
X040090Y007509D01*
X040040Y007559D01*
X040040Y007709D01*
X040042Y007726D01*
X040046Y007743D01*
X040053Y007759D01*
X040063Y007773D01*
X040076Y007786D01*
X040090Y007796D01*
X040106Y007803D01*
X040123Y007807D01*
X040140Y007809D01*
X040840Y007809D01*
X040857Y007807D01*
X040874Y007803D01*
X040890Y007796D01*
X040904Y007786D01*
X040917Y007773D01*
X040927Y007759D01*
X040934Y007743D01*
X040938Y007726D01*
X040940Y007709D01*
X039609Y007638D02*
X039609Y007788D01*
X039607Y007805D01*
X039603Y007822D01*
X039596Y007838D01*
X039586Y007852D01*
X039573Y007865D01*
X039559Y007875D01*
X039543Y007882D01*
X039526Y007886D01*
X039509Y007888D01*
X038809Y007888D01*
X038792Y007886D01*
X038775Y007882D01*
X038759Y007875D01*
X038745Y007865D01*
X038732Y007852D01*
X038722Y007838D01*
X038715Y007822D01*
X038711Y007805D01*
X038709Y007788D01*
X038709Y007638D01*
X038759Y007588D01*
X038759Y005688D01*
X038709Y005638D01*
X038709Y005488D01*
X038711Y005471D01*
X038715Y005454D01*
X038722Y005438D01*
X038732Y005424D01*
X038745Y005411D01*
X038759Y005401D01*
X038775Y005394D01*
X038792Y005390D01*
X038809Y005388D01*
X039509Y005388D01*
X039526Y005390D01*
X039543Y005394D01*
X039559Y005401D01*
X039573Y005411D01*
X039586Y005424D01*
X039596Y005438D01*
X039603Y005454D01*
X039607Y005471D01*
X039609Y005488D01*
X039609Y005638D01*
X039559Y005688D01*
X039559Y007588D01*
X039609Y007638D01*
X038270Y007709D02*
X038270Y007559D01*
X038220Y007509D01*
X038220Y005609D01*
X038270Y005559D01*
X038270Y005409D01*
X038268Y005392D01*
X038264Y005375D01*
X038257Y005359D01*
X038247Y005345D01*
X038234Y005332D01*
X038220Y005322D01*
X038204Y005315D01*
X038187Y005311D01*
X038170Y005309D01*
X037470Y005309D01*
X037453Y005311D01*
X037436Y005315D01*
X037420Y005322D01*
X037406Y005332D01*
X037393Y005345D01*
X037383Y005359D01*
X037376Y005375D01*
X037372Y005392D01*
X037370Y005409D01*
X037370Y005559D01*
X037420Y005609D01*
X037420Y007509D01*
X037370Y007559D01*
X037370Y007709D01*
X037372Y007726D01*
X037376Y007743D01*
X037383Y007759D01*
X037393Y007773D01*
X037406Y007786D01*
X037420Y007796D01*
X037436Y007803D01*
X037453Y007807D01*
X037470Y007809D01*
X038170Y007809D01*
X038187Y007807D01*
X038204Y007803D01*
X038220Y007796D01*
X038234Y007786D01*
X038247Y007773D01*
X038257Y007759D01*
X038264Y007743D01*
X038268Y007726D01*
X038270Y007709D01*
X036971Y007748D02*
X036971Y007598D01*
X036921Y007548D01*
X036921Y005648D01*
X036971Y005598D01*
X036971Y005448D01*
X036969Y005431D01*
X036965Y005414D01*
X036958Y005398D01*
X036948Y005384D01*
X036935Y005371D01*
X036921Y005361D01*
X036905Y005354D01*
X036888Y005350D01*
X036871Y005348D01*
X036171Y005348D01*
X036154Y005350D01*
X036137Y005354D01*
X036121Y005361D01*
X036107Y005371D01*
X036094Y005384D01*
X036084Y005398D01*
X036077Y005414D01*
X036073Y005431D01*
X036071Y005448D01*
X036071Y005598D01*
X036121Y005648D01*
X036121Y007548D01*
X036071Y007598D01*
X036071Y007748D01*
X036073Y007765D01*
X036077Y007782D01*
X036084Y007798D01*
X036094Y007812D01*
X036107Y007825D01*
X036121Y007835D01*
X036137Y007842D01*
X036154Y007846D01*
X036171Y007848D01*
X036871Y007848D01*
X036888Y007846D01*
X036905Y007842D01*
X036921Y007835D01*
X036935Y007825D01*
X036948Y007812D01*
X036958Y007798D01*
X036965Y007782D01*
X036969Y007765D01*
X036971Y007748D01*
X035656Y007709D02*
X035656Y007559D01*
X035606Y007509D01*
X035606Y005609D01*
X035656Y005559D01*
X035656Y005409D01*
X035654Y005392D01*
X035650Y005375D01*
X035643Y005359D01*
X035633Y005345D01*
X035620Y005332D01*
X035606Y005322D01*
X035590Y005315D01*
X035573Y005311D01*
X035556Y005309D01*
X034856Y005309D01*
X034839Y005311D01*
X034822Y005315D01*
X034806Y005322D01*
X034792Y005332D01*
X034779Y005345D01*
X034769Y005359D01*
X034762Y005375D01*
X034758Y005392D01*
X034756Y005409D01*
X034756Y005559D01*
X034806Y005609D01*
X034806Y007509D01*
X034756Y007559D01*
X034756Y007709D01*
X034758Y007726D01*
X034762Y007743D01*
X034769Y007759D01*
X034779Y007773D01*
X034792Y007786D01*
X034806Y007796D01*
X034822Y007803D01*
X034839Y007807D01*
X034856Y007809D01*
X035556Y007809D01*
X035573Y007807D01*
X035590Y007803D01*
X035606Y007796D01*
X035620Y007786D01*
X035633Y007773D01*
X035643Y007759D01*
X035650Y007743D01*
X035654Y007726D01*
X035656Y007709D01*
X034200Y007709D02*
X034200Y007559D01*
X034150Y007509D01*
X034150Y005609D01*
X034200Y005559D01*
X034200Y005409D01*
X034198Y005392D01*
X034194Y005375D01*
X034187Y005359D01*
X034177Y005345D01*
X034164Y005332D01*
X034150Y005322D01*
X034134Y005315D01*
X034117Y005311D01*
X034100Y005309D01*
X033400Y005309D01*
X033383Y005311D01*
X033366Y005315D01*
X033350Y005322D01*
X033336Y005332D01*
X033323Y005345D01*
X033313Y005359D01*
X033306Y005375D01*
X033302Y005392D01*
X033300Y005409D01*
X033300Y005559D01*
X033350Y005609D01*
X033350Y007509D01*
X033300Y007559D01*
X033300Y007709D01*
X033302Y007726D01*
X033306Y007743D01*
X033313Y007759D01*
X033323Y007773D01*
X033336Y007786D01*
X033350Y007796D01*
X033366Y007803D01*
X033383Y007807D01*
X033400Y007809D01*
X034100Y007809D01*
X034117Y007807D01*
X034134Y007803D01*
X034150Y007796D01*
X034164Y007786D01*
X034177Y007773D01*
X034187Y007759D01*
X034194Y007743D01*
X034198Y007726D01*
X034200Y007709D01*
X032743Y007709D02*
X032743Y007559D01*
X032693Y007509D01*
X032693Y005609D01*
X032743Y005559D01*
X032743Y005409D01*
X032741Y005392D01*
X032737Y005375D01*
X032730Y005359D01*
X032720Y005345D01*
X032707Y005332D01*
X032693Y005322D01*
X032677Y005315D01*
X032660Y005311D01*
X032643Y005309D01*
X031943Y005309D01*
X031926Y005311D01*
X031909Y005315D01*
X031893Y005322D01*
X031879Y005332D01*
X031866Y005345D01*
X031856Y005359D01*
X031849Y005375D01*
X031845Y005392D01*
X031843Y005409D01*
X031843Y005559D01*
X031893Y005609D01*
X031893Y007509D01*
X031843Y007559D01*
X031843Y007709D01*
X031845Y007726D01*
X031849Y007743D01*
X031856Y007759D01*
X031866Y007773D01*
X031879Y007786D01*
X031893Y007796D01*
X031909Y007803D01*
X031926Y007807D01*
X031943Y007809D01*
X032643Y007809D01*
X032660Y007807D01*
X032677Y007803D01*
X032693Y007796D01*
X032707Y007786D01*
X032720Y007773D01*
X032730Y007759D01*
X032737Y007743D01*
X032741Y007726D01*
X032743Y007709D01*
X031247Y007638D02*
X031247Y007788D01*
X031245Y007805D01*
X031241Y007822D01*
X031234Y007838D01*
X031224Y007852D01*
X031211Y007865D01*
X031197Y007875D01*
X031181Y007882D01*
X031164Y007886D01*
X031147Y007888D01*
X030447Y007888D01*
X030430Y007886D01*
X030413Y007882D01*
X030397Y007875D01*
X030383Y007865D01*
X030370Y007852D01*
X030360Y007838D01*
X030353Y007822D01*
X030349Y007805D01*
X030347Y007788D01*
X030347Y007638D01*
X030397Y007588D01*
X030397Y005688D01*
X030347Y005638D01*
X030347Y005488D01*
X030349Y005471D01*
X030353Y005454D01*
X030360Y005438D01*
X030370Y005424D01*
X030383Y005411D01*
X030397Y005401D01*
X030413Y005394D01*
X030430Y005390D01*
X030447Y005388D01*
X031147Y005388D01*
X031164Y005390D01*
X031181Y005394D01*
X031197Y005401D01*
X031211Y005411D01*
X031224Y005424D01*
X031234Y005438D01*
X031241Y005454D01*
X031245Y005471D01*
X031247Y005488D01*
X031247Y005638D01*
X031197Y005688D01*
X031197Y007588D01*
X031247Y007638D01*
X029672Y007709D02*
X029672Y007559D01*
X029622Y007509D01*
X029622Y005609D01*
X029672Y005559D01*
X029672Y005409D01*
X029670Y005392D01*
X029666Y005375D01*
X029659Y005359D01*
X029649Y005345D01*
X029636Y005332D01*
X029622Y005322D01*
X029606Y005315D01*
X029589Y005311D01*
X029572Y005309D01*
X028872Y005309D01*
X028855Y005311D01*
X028838Y005315D01*
X028822Y005322D01*
X028808Y005332D01*
X028795Y005345D01*
X028785Y005359D01*
X028778Y005375D01*
X028774Y005392D01*
X028772Y005409D01*
X028772Y005559D01*
X028822Y005609D01*
X028822Y007509D01*
X028772Y007559D01*
X028772Y007709D01*
X028774Y007726D01*
X028778Y007743D01*
X028785Y007759D01*
X028795Y007773D01*
X028808Y007786D01*
X028822Y007796D01*
X028838Y007803D01*
X028855Y007807D01*
X028872Y007809D01*
X029572Y007809D01*
X029589Y007807D01*
X029606Y007803D01*
X029622Y007796D01*
X029636Y007786D01*
X029649Y007773D01*
X029659Y007759D01*
X029666Y007743D01*
X029670Y007726D01*
X029672Y007709D01*
X028026Y007677D02*
X028026Y007827D01*
X028024Y007844D01*
X028020Y007861D01*
X028013Y007877D01*
X028003Y007891D01*
X027990Y007904D01*
X027976Y007914D01*
X027960Y007921D01*
X027943Y007925D01*
X027926Y007927D01*
X027226Y007927D01*
X027209Y007925D01*
X027192Y007921D01*
X027176Y007914D01*
X027162Y007904D01*
X027149Y007891D01*
X027139Y007877D01*
X027132Y007861D01*
X027128Y007844D01*
X027126Y007827D01*
X027126Y007677D01*
X027176Y007627D01*
X027176Y005727D01*
X027126Y005677D01*
X027126Y005527D01*
X027128Y005510D01*
X027132Y005493D01*
X027139Y005477D01*
X027149Y005463D01*
X027162Y005450D01*
X027176Y005440D01*
X027192Y005433D01*
X027209Y005429D01*
X027226Y005427D01*
X027926Y005427D01*
X027943Y005429D01*
X027960Y005433D01*
X027976Y005440D01*
X027990Y005450D01*
X028003Y005463D01*
X028013Y005477D01*
X028020Y005493D01*
X028024Y005510D01*
X028026Y005527D01*
X028026Y005677D01*
X027976Y005727D01*
X027976Y007627D01*
X028026Y007677D01*
X026176Y007716D02*
X026126Y007666D01*
X026126Y005766D01*
X026176Y005716D01*
X026176Y005566D01*
X026174Y005549D01*
X026170Y005532D01*
X026163Y005516D01*
X026153Y005502D01*
X026140Y005489D01*
X026126Y005479D01*
X026110Y005472D01*
X026093Y005468D01*
X026076Y005466D01*
X025376Y005466D01*
X025359Y005468D01*
X025342Y005472D01*
X025326Y005479D01*
X025312Y005489D01*
X025299Y005502D01*
X025289Y005516D01*
X025282Y005532D01*
X025278Y005549D01*
X025276Y005566D01*
X025276Y005716D01*
X025326Y005766D01*
X025326Y007666D01*
X025276Y007716D01*
X025276Y007866D01*
X025278Y007883D01*
X025282Y007900D01*
X025289Y007916D01*
X025299Y007930D01*
X025312Y007943D01*
X025326Y007953D01*
X025342Y007960D01*
X025359Y007964D01*
X025376Y007966D01*
X026076Y007966D01*
X026093Y007964D01*
X026110Y007960D01*
X026126Y007953D01*
X026140Y007943D01*
X026153Y007930D01*
X026163Y007916D01*
X026170Y007900D01*
X026174Y007883D01*
X026176Y007866D01*
X026176Y007716D01*
X024404Y007716D02*
X024354Y007666D01*
X024354Y005766D01*
X024404Y005716D01*
X024404Y005566D01*
X024402Y005549D01*
X024398Y005532D01*
X024391Y005516D01*
X024381Y005502D01*
X024368Y005489D01*
X024354Y005479D01*
X024338Y005472D01*
X024321Y005468D01*
X024304Y005466D01*
X023604Y005466D01*
X023587Y005468D01*
X023570Y005472D01*
X023554Y005479D01*
X023540Y005489D01*
X023527Y005502D01*
X023517Y005516D01*
X023510Y005532D01*
X023506Y005549D01*
X023504Y005566D01*
X023504Y005716D01*
X023554Y005766D01*
X023554Y007666D01*
X023504Y007716D01*
X023504Y007866D01*
X023506Y007883D01*
X023510Y007900D01*
X023517Y007916D01*
X023527Y007930D01*
X023540Y007943D01*
X023554Y007953D01*
X023570Y007960D01*
X023587Y007964D01*
X023604Y007966D01*
X024304Y007966D01*
X024321Y007964D01*
X024338Y007960D01*
X024354Y007953D01*
X024368Y007943D01*
X024381Y007930D01*
X024391Y007916D01*
X024398Y007900D01*
X024402Y007883D01*
X024404Y007866D01*
X024404Y007716D01*
X019974Y013323D02*
X019976Y013386D01*
X019982Y013448D01*
X019992Y013510D01*
X020005Y013572D01*
X020023Y013632D01*
X020044Y013691D01*
X020069Y013749D01*
X020098Y013805D01*
X020130Y013859D01*
X020165Y013911D01*
X020203Y013960D01*
X020245Y014008D01*
X020289Y014052D01*
X020337Y014094D01*
X020386Y014132D01*
X020438Y014167D01*
X020492Y014199D01*
X020548Y014228D01*
X020606Y014253D01*
X020665Y014274D01*
X020725Y014292D01*
X020787Y014305D01*
X020849Y014315D01*
X020911Y014321D01*
X020974Y014323D01*
X021037Y014321D01*
X021099Y014315D01*
X021161Y014305D01*
X021223Y014292D01*
X021283Y014274D01*
X021342Y014253D01*
X021400Y014228D01*
X021456Y014199D01*
X021510Y014167D01*
X021562Y014132D01*
X021611Y014094D01*
X021659Y014052D01*
X021703Y014008D01*
X021745Y013960D01*
X021783Y013911D01*
X021818Y013859D01*
X021850Y013805D01*
X021879Y013749D01*
X021904Y013691D01*
X021925Y013632D01*
X021943Y013572D01*
X021956Y013510D01*
X021966Y013448D01*
X021972Y013386D01*
X021974Y013323D01*
X021972Y013260D01*
X021966Y013198D01*
X021956Y013136D01*
X021943Y013074D01*
X021925Y013014D01*
X021904Y012955D01*
X021879Y012897D01*
X021850Y012841D01*
X021818Y012787D01*
X021783Y012735D01*
X021745Y012686D01*
X021703Y012638D01*
X021659Y012594D01*
X021611Y012552D01*
X021562Y012514D01*
X021510Y012479D01*
X021456Y012447D01*
X021400Y012418D01*
X021342Y012393D01*
X021283Y012372D01*
X021223Y012354D01*
X021161Y012341D01*
X021099Y012331D01*
X021037Y012325D01*
X020974Y012323D01*
X020911Y012325D01*
X020849Y012331D01*
X020787Y012341D01*
X020725Y012354D01*
X020665Y012372D01*
X020606Y012393D01*
X020548Y012418D01*
X020492Y012447D01*
X020438Y012479D01*
X020386Y012514D01*
X020337Y012552D01*
X020289Y012594D01*
X020245Y012638D01*
X020203Y012686D01*
X020165Y012735D01*
X020130Y012787D01*
X020098Y012841D01*
X020069Y012897D01*
X020044Y012955D01*
X020023Y013014D01*
X020005Y013074D01*
X019992Y013136D01*
X019982Y013198D01*
X019976Y013260D01*
X019974Y013323D01*
X030954Y020709D02*
X030956Y020772D01*
X030962Y020834D01*
X030972Y020896D01*
X030985Y020958D01*
X031003Y021018D01*
X031024Y021077D01*
X031049Y021135D01*
X031078Y021191D01*
X031110Y021245D01*
X031145Y021297D01*
X031183Y021346D01*
X031225Y021394D01*
X031269Y021438D01*
X031317Y021480D01*
X031366Y021518D01*
X031418Y021553D01*
X031472Y021585D01*
X031528Y021614D01*
X031586Y021639D01*
X031645Y021660D01*
X031705Y021678D01*
X031767Y021691D01*
X031829Y021701D01*
X031891Y021707D01*
X031954Y021709D01*
X032017Y021707D01*
X032079Y021701D01*
X032141Y021691D01*
X032203Y021678D01*
X032263Y021660D01*
X032322Y021639D01*
X032380Y021614D01*
X032436Y021585D01*
X032490Y021553D01*
X032542Y021518D01*
X032591Y021480D01*
X032639Y021438D01*
X032683Y021394D01*
X032725Y021346D01*
X032763Y021297D01*
X032798Y021245D01*
X032830Y021191D01*
X032859Y021135D01*
X032884Y021077D01*
X032905Y021018D01*
X032923Y020958D01*
X032936Y020896D01*
X032946Y020834D01*
X032952Y020772D01*
X032954Y020709D01*
X032952Y020646D01*
X032946Y020584D01*
X032936Y020522D01*
X032923Y020460D01*
X032905Y020400D01*
X032884Y020341D01*
X032859Y020283D01*
X032830Y020227D01*
X032798Y020173D01*
X032763Y020121D01*
X032725Y020072D01*
X032683Y020024D01*
X032639Y019980D01*
X032591Y019938D01*
X032542Y019900D01*
X032490Y019865D01*
X032436Y019833D01*
X032380Y019804D01*
X032322Y019779D01*
X032263Y019758D01*
X032203Y019740D01*
X032141Y019727D01*
X032079Y019717D01*
X032017Y019711D01*
X031954Y019709D01*
X031891Y019711D01*
X031829Y019717D01*
X031767Y019727D01*
X031705Y019740D01*
X031645Y019758D01*
X031586Y019779D01*
X031528Y019804D01*
X031472Y019833D01*
X031418Y019865D01*
X031366Y019900D01*
X031317Y019938D01*
X031269Y019980D01*
X031225Y020024D01*
X031183Y020072D01*
X031145Y020121D01*
X031110Y020173D01*
X031078Y020227D01*
X031049Y020283D01*
X031024Y020341D01*
X031003Y020400D01*
X030985Y020460D01*
X030972Y020522D01*
X030962Y020584D01*
X030956Y020646D01*
X030954Y020709D01*
X021146Y027736D02*
X021018Y027597D01*
X020883Y027464D01*
X020742Y027337D01*
X020595Y027218D01*
X020443Y027106D01*
X020285Y027001D01*
X020122Y026904D01*
X019955Y026814D01*
X019784Y026733D01*
X019610Y026661D01*
X019431Y026596D01*
X019251Y026540D01*
X019067Y026493D01*
X018882Y026455D01*
X018695Y026426D01*
X018506Y026406D01*
X018317Y026394D01*
X018128Y026392D01*
X011872Y032719D02*
X011722Y032719D01*
X011672Y032769D01*
X009772Y032769D01*
X009722Y032719D01*
X009572Y032719D01*
X009555Y032721D01*
X009538Y032725D01*
X009522Y032732D01*
X009508Y032742D01*
X009495Y032755D01*
X009485Y032769D01*
X009478Y032785D01*
X009474Y032802D01*
X009472Y032819D01*
X009472Y033519D01*
X009474Y033536D01*
X009478Y033553D01*
X009485Y033569D01*
X009495Y033583D01*
X009508Y033596D01*
X009522Y033606D01*
X009538Y033613D01*
X009555Y033617D01*
X009572Y033619D01*
X009722Y033619D01*
X009772Y033569D01*
X011672Y033569D01*
X011722Y033619D01*
X011872Y033619D01*
X011889Y033617D01*
X011906Y033613D01*
X011922Y033606D01*
X011936Y033596D01*
X011949Y033583D01*
X011959Y033569D01*
X011966Y033553D01*
X011970Y033536D01*
X011972Y033519D01*
X011972Y032819D01*
X011970Y032802D01*
X011966Y032785D01*
X011959Y032769D01*
X011949Y032755D01*
X011936Y032742D01*
X011922Y032732D01*
X011906Y032725D01*
X011889Y032721D01*
X011872Y032719D01*
X051198Y019256D02*
X051200Y019319D01*
X051206Y019381D01*
X051216Y019443D01*
X051229Y019505D01*
X051247Y019565D01*
X051268Y019624D01*
X051293Y019682D01*
X051322Y019738D01*
X051354Y019792D01*
X051389Y019844D01*
X051427Y019893D01*
X051469Y019941D01*
X051513Y019985D01*
X051561Y020027D01*
X051610Y020065D01*
X051662Y020100D01*
X051716Y020132D01*
X051772Y020161D01*
X051830Y020186D01*
X051889Y020207D01*
X051949Y020225D01*
X052011Y020238D01*
X052073Y020248D01*
X052135Y020254D01*
X052198Y020256D01*
X052261Y020254D01*
X052323Y020248D01*
X052385Y020238D01*
X052447Y020225D01*
X052507Y020207D01*
X052566Y020186D01*
X052624Y020161D01*
X052680Y020132D01*
X052734Y020100D01*
X052786Y020065D01*
X052835Y020027D01*
X052883Y019985D01*
X052927Y019941D01*
X052969Y019893D01*
X053007Y019844D01*
X053042Y019792D01*
X053074Y019738D01*
X053103Y019682D01*
X053128Y019624D01*
X053149Y019565D01*
X053167Y019505D01*
X053180Y019443D01*
X053190Y019381D01*
X053196Y019319D01*
X053198Y019256D01*
X053196Y019193D01*
X053190Y019131D01*
X053180Y019069D01*
X053167Y019007D01*
X053149Y018947D01*
X053128Y018888D01*
X053103Y018830D01*
X053074Y018774D01*
X053042Y018720D01*
X053007Y018668D01*
X052969Y018619D01*
X052927Y018571D01*
X052883Y018527D01*
X052835Y018485D01*
X052786Y018447D01*
X052734Y018412D01*
X052680Y018380D01*
X052624Y018351D01*
X052566Y018326D01*
X052507Y018305D01*
X052447Y018287D01*
X052385Y018274D01*
X052323Y018264D01*
X052261Y018258D01*
X052198Y018256D01*
X052135Y018258D01*
X052073Y018264D01*
X052011Y018274D01*
X051949Y018287D01*
X051889Y018305D01*
X051830Y018326D01*
X051772Y018351D01*
X051716Y018380D01*
X051662Y018412D01*
X051610Y018447D01*
X051561Y018485D01*
X051513Y018527D01*
X051469Y018571D01*
X051427Y018619D01*
X051389Y018668D01*
X051354Y018720D01*
X051322Y018774D01*
X051293Y018830D01*
X051268Y018888D01*
X051247Y018947D01*
X051229Y019007D01*
X051216Y019069D01*
X051206Y019131D01*
X051200Y019193D01*
X051198Y019256D01*
X051061Y006737D02*
X050911Y006737D01*
X050894Y006735D01*
X050877Y006731D01*
X050861Y006724D01*
X050847Y006714D01*
X050834Y006701D01*
X050824Y006687D01*
X050817Y006671D01*
X050813Y006654D01*
X050811Y006637D01*
X050811Y005937D01*
X050813Y005920D01*
X050817Y005903D01*
X050824Y005887D01*
X050834Y005873D01*
X050847Y005860D01*
X050861Y005850D01*
X050877Y005843D01*
X050894Y005839D01*
X050911Y005837D01*
X051061Y005837D01*
X051111Y005887D01*
X053011Y005887D01*
X053061Y005837D01*
X053211Y005837D01*
X053228Y005839D01*
X053245Y005843D01*
X053261Y005850D01*
X053275Y005860D01*
X053288Y005873D01*
X053298Y005887D01*
X053305Y005903D01*
X053309Y005920D01*
X053311Y005937D01*
X053311Y006637D01*
X053309Y006654D01*
X053305Y006671D01*
X053298Y006687D01*
X053288Y006701D01*
X053275Y006714D01*
X053261Y006724D01*
X053245Y006731D01*
X053228Y006735D01*
X053211Y006737D01*
X053061Y006737D01*
X053011Y006687D01*
X051111Y006687D01*
X051061Y006737D01*
D12*
X012612Y008551D02*
X012191Y008551D01*
X012612Y008972D01*
X012612Y009077D01*
X012506Y009182D01*
X012296Y009182D01*
X012191Y009077D01*
X011967Y009077D02*
X011862Y009182D01*
X011652Y009182D01*
X011547Y009077D01*
X011547Y008656D01*
X011652Y008551D01*
X011862Y008551D01*
X011967Y008656D01*
X011327Y008551D02*
X011117Y008551D01*
X011222Y008551D02*
X011222Y009182D01*
X011117Y009182D02*
X011327Y009182D01*
X008039Y008295D02*
X007619Y008295D01*
X007829Y008295D02*
X007829Y008925D01*
X007619Y008715D01*
X007395Y008610D02*
X007185Y008610D01*
X007395Y008610D02*
X007395Y008400D01*
X007290Y008295D01*
X007079Y008295D01*
X006974Y008400D01*
X006974Y008820D01*
X007079Y008925D01*
X007290Y008925D01*
X007395Y008820D01*
X006750Y008820D02*
X006645Y008925D01*
X006435Y008925D01*
X006330Y008820D01*
X006330Y008715D01*
X006435Y008610D01*
X006645Y008610D01*
X006750Y008505D01*
X006750Y008400D01*
X006645Y008295D01*
X006435Y008295D01*
X006330Y008400D01*
X055174Y030573D02*
X055174Y030783D01*
X055174Y030678D02*
X055805Y030678D01*
X055805Y030573D02*
X055805Y030783D01*
X055700Y031002D02*
X055805Y031108D01*
X055805Y031318D01*
X055700Y031423D01*
X055805Y031647D02*
X055805Y032067D01*
X055805Y031857D02*
X055174Y031857D01*
X055384Y031647D01*
X055279Y031423D02*
X055174Y031318D01*
X055174Y031108D01*
X055279Y031002D01*
X055700Y031002D01*
D13*
X054790Y030707D02*
X054790Y027457D01*
X051190Y027457D01*
X051190Y030707D01*
X054790Y030707D01*
D14*
X053990Y032182D03*
X052990Y032182D03*
X051990Y032182D03*
D15*
X051990Y031507D03*
X052990Y031507D03*
X053990Y031507D03*
D16*
X049962Y026797D02*
X050037Y026722D01*
X050037Y026572D01*
X049962Y026497D01*
X049812Y026497D02*
X049737Y026647D01*
X049737Y026722D01*
X049812Y026797D01*
X049962Y026797D01*
X049812Y026497D02*
X049587Y026497D01*
X049587Y026797D01*
X049662Y026337D02*
X049587Y026261D01*
X049587Y026111D01*
X049662Y026036D01*
X049812Y026186D02*
X049812Y026261D01*
X049887Y026337D01*
X049962Y026337D01*
X050037Y026261D01*
X050037Y026111D01*
X049962Y026036D01*
X050037Y025876D02*
X050037Y025576D01*
X049587Y025576D01*
X048777Y025576D02*
X048777Y025876D01*
X048702Y026036D02*
X048777Y026111D01*
X048777Y026261D01*
X048702Y026337D01*
X048627Y026337D01*
X048552Y026261D01*
X048552Y026186D01*
X048552Y026261D02*
X048477Y026337D01*
X048402Y026337D01*
X048327Y026261D01*
X048327Y026111D01*
X048402Y026036D01*
X048327Y025576D02*
X048777Y025576D01*
X048552Y026497D02*
X048552Y026797D01*
X048777Y026722D02*
X048327Y026722D01*
X048552Y026497D01*
X047478Y026380D02*
X047478Y026229D01*
X047403Y026154D01*
X047478Y025994D02*
X047478Y025694D01*
X047028Y025694D01*
X047103Y026154D02*
X047028Y026229D01*
X047028Y026380D01*
X047103Y026455D01*
X047178Y026455D01*
X047253Y026380D01*
X047328Y026455D01*
X047403Y026455D01*
X047478Y026380D01*
X047253Y026380D02*
X047253Y026305D01*
X047103Y026615D02*
X047028Y026690D01*
X047028Y026840D01*
X047103Y026915D01*
X047178Y026915D01*
X047253Y026840D01*
X047328Y026915D01*
X047403Y026915D01*
X047478Y026840D01*
X047478Y026690D01*
X047403Y026615D01*
X047253Y026765D02*
X047253Y026840D01*
X049662Y026337D02*
X049737Y026337D01*
X049812Y026261D01*
X044769Y026190D02*
X044694Y026115D01*
X044769Y026190D02*
X044769Y026340D01*
X044694Y026415D01*
X044619Y026415D01*
X044544Y026340D01*
X044544Y026265D01*
X044544Y026340D02*
X044469Y026415D01*
X044394Y026415D01*
X044319Y026340D01*
X044319Y026190D01*
X044394Y026115D01*
X044769Y025955D02*
X044769Y025655D01*
X044319Y025655D01*
X043431Y025694D02*
X043431Y025994D01*
X043431Y026154D02*
X043131Y026455D01*
X043056Y026455D01*
X042981Y026380D01*
X042981Y026229D01*
X043056Y026154D01*
X043431Y026154D02*
X043431Y026455D01*
X043356Y026615D02*
X043431Y026690D01*
X043431Y026840D01*
X043356Y026915D01*
X043056Y026915D01*
X042981Y026840D01*
X042981Y026690D01*
X043056Y026615D01*
X043131Y026615D01*
X043206Y026690D01*
X043206Y026915D01*
X042092Y026840D02*
X042092Y026690D01*
X042017Y026615D01*
X041942Y026615D01*
X041867Y026690D01*
X041867Y026840D01*
X041942Y026915D01*
X042017Y026915D01*
X042092Y026840D01*
X041867Y026840D02*
X041792Y026915D01*
X041717Y026915D01*
X041642Y026840D01*
X041642Y026690D01*
X041717Y026615D01*
X041792Y026615D01*
X041867Y026690D01*
X041792Y026455D02*
X041717Y026455D01*
X041642Y026380D01*
X041642Y026229D01*
X041717Y026154D01*
X041792Y026455D02*
X042092Y026154D01*
X042092Y026455D01*
X042092Y025994D02*
X042092Y025694D01*
X041642Y025694D01*
X042981Y025694D02*
X043431Y025694D01*
X044319Y026650D02*
X044319Y026801D01*
X044394Y026876D01*
X044694Y026575D01*
X044769Y026650D01*
X044769Y026801D01*
X044694Y026876D01*
X044394Y026876D01*
X044319Y026650D02*
X044394Y026575D01*
X044694Y026575D01*
X041405Y029710D02*
X041255Y029860D01*
X040955Y029860D01*
X040776Y029789D02*
X041226Y029789D01*
X041226Y030089D01*
X041180Y030020D02*
X041180Y030320D01*
X041226Y030324D02*
X041151Y030249D01*
X041226Y030324D02*
X041226Y030474D01*
X041151Y030549D01*
X041076Y030549D01*
X041001Y030474D01*
X041001Y030399D01*
X041001Y030474D02*
X040926Y030549D01*
X040851Y030549D01*
X040776Y030474D01*
X040776Y030324D01*
X040851Y030249D01*
X040955Y030245D02*
X041180Y030020D01*
X041405Y030245D02*
X040955Y030245D01*
X040851Y030709D02*
X040776Y030784D01*
X040776Y030934D01*
X040851Y031010D01*
X040926Y031010D01*
X041226Y030709D01*
X041226Y031010D01*
X041405Y029710D02*
X041255Y029560D01*
X040955Y029560D01*
X039368Y029749D02*
X039368Y030049D01*
X039293Y030210D02*
X039368Y030285D01*
X039368Y030435D01*
X039293Y030510D01*
X039218Y030510D01*
X039143Y030435D01*
X039143Y030360D01*
X039143Y030435D02*
X039068Y030510D01*
X038993Y030510D01*
X038918Y030435D01*
X038918Y030285D01*
X038993Y030210D01*
X038918Y029749D02*
X039368Y029749D01*
X039293Y030670D02*
X039368Y030745D01*
X039368Y030895D01*
X039293Y030970D01*
X039218Y030970D01*
X039143Y030895D01*
X039143Y030670D01*
X039293Y030670D01*
X039143Y030670D02*
X038993Y030820D01*
X038918Y030970D01*
X036466Y028505D02*
X036166Y028805D01*
X036091Y028805D01*
X036091Y028505D01*
X036166Y028344D02*
X036091Y028269D01*
X036091Y028119D01*
X036166Y028044D01*
X036166Y028344D02*
X036241Y028344D01*
X036541Y028044D01*
X036541Y028344D01*
X036541Y028505D02*
X036466Y028505D01*
X036541Y027884D02*
X036541Y027584D01*
X036091Y027584D01*
X035124Y026761D02*
X035049Y026836D01*
X034974Y026836D01*
X034899Y026761D01*
X034899Y026536D01*
X035049Y026536D01*
X035124Y026611D01*
X035124Y026761D01*
X034899Y026536D02*
X034749Y026686D01*
X034673Y026836D01*
X034749Y026376D02*
X034673Y026301D01*
X034673Y026151D01*
X034749Y026076D01*
X034749Y026376D02*
X034824Y026376D01*
X035124Y026076D01*
X035124Y026376D01*
X035124Y025916D02*
X035124Y025615D01*
X034673Y025615D01*
X033549Y025773D02*
X033549Y026073D01*
X033549Y026233D02*
X033249Y026533D01*
X033174Y026533D01*
X033099Y026458D01*
X033099Y026308D01*
X033174Y026233D01*
X033549Y026233D02*
X033549Y026533D01*
X033474Y026694D02*
X033549Y026769D01*
X033549Y026919D01*
X033474Y026994D01*
X033324Y026994D01*
X033249Y026919D01*
X033249Y026844D01*
X033324Y026694D01*
X033099Y026694D01*
X033099Y026994D01*
X032376Y026722D02*
X032376Y026572D01*
X032301Y026497D01*
X032376Y026337D02*
X032376Y026036D01*
X032076Y026337D01*
X032000Y026337D01*
X031925Y026261D01*
X031925Y026111D01*
X032000Y026036D01*
X032376Y025876D02*
X032376Y025576D01*
X031925Y025576D01*
X032000Y026497D02*
X031925Y026572D01*
X031925Y026722D01*
X032000Y026797D01*
X032076Y026797D01*
X032151Y026722D01*
X032226Y026797D01*
X032301Y026797D01*
X032376Y026722D01*
X032151Y026722D02*
X032151Y026647D01*
X033099Y025773D02*
X033549Y025773D01*
X037080Y025988D02*
X037080Y025397D01*
X037081Y025397D02*
X037083Y025343D01*
X037088Y025290D01*
X037097Y025237D01*
X037110Y025185D01*
X037126Y025133D01*
X037146Y025083D01*
X037169Y025035D01*
X037196Y024988D01*
X037225Y024943D01*
X037258Y024900D01*
X037293Y024860D01*
X037331Y024822D01*
X037371Y024787D01*
X037414Y024754D01*
X037459Y024725D01*
X037506Y024698D01*
X037554Y024675D01*
X037604Y024655D01*
X037656Y024639D01*
X037708Y024626D01*
X037761Y024617D01*
X037814Y024612D01*
X037868Y024610D01*
X038065Y024610D01*
X038119Y024612D01*
X038172Y024617D01*
X038225Y024626D01*
X038277Y024639D01*
X038329Y024655D01*
X038379Y024675D01*
X038427Y024698D01*
X038474Y024725D01*
X038519Y024754D01*
X038562Y024787D01*
X038602Y024822D01*
X038640Y024860D01*
X038675Y024900D01*
X038708Y024943D01*
X038737Y024988D01*
X038764Y025035D01*
X038787Y025083D01*
X038807Y025133D01*
X038823Y025185D01*
X038836Y025237D01*
X038845Y025290D01*
X038850Y025343D01*
X038852Y025397D01*
X038852Y025988D01*
X037080Y025988D01*
X039191Y022846D02*
X034072Y022846D01*
X034072Y015366D01*
X039191Y015366D01*
X039191Y022846D01*
X040317Y022846D02*
X040317Y015366D01*
X045435Y015366D01*
X045435Y022846D01*
X040317Y022846D01*
X032639Y019248D02*
X032639Y019098D01*
X032564Y019023D01*
X032414Y019023D01*
X032414Y019248D01*
X032489Y019323D01*
X032564Y019323D01*
X032639Y019248D01*
X032414Y019023D02*
X032264Y019173D01*
X032189Y019323D01*
X032264Y018863D02*
X032189Y018788D01*
X032189Y018563D01*
X032639Y018563D01*
X032639Y018788D01*
X032564Y018863D01*
X032264Y018863D01*
X032189Y018403D02*
X032189Y018102D01*
X032639Y018102D01*
X032639Y018403D01*
X032414Y018252D02*
X032414Y018102D01*
X032639Y017942D02*
X032639Y017642D01*
X032189Y017642D01*
X032232Y015638D02*
X032232Y015338D01*
X032457Y015338D01*
X032382Y015488D01*
X032382Y015563D01*
X032457Y015638D01*
X032608Y015638D01*
X032683Y015563D01*
X032683Y015413D01*
X032608Y015338D01*
X032608Y015178D02*
X032307Y015178D01*
X032232Y015103D01*
X032232Y014878D01*
X032683Y014878D01*
X032683Y015103D01*
X032608Y015178D01*
X032683Y014718D02*
X032683Y014417D01*
X032232Y014417D01*
X032232Y014718D01*
X032457Y014567D02*
X032457Y014417D01*
X032683Y014257D02*
X032683Y013957D01*
X032232Y013957D01*
X030151Y015327D02*
X025033Y015327D01*
X025033Y022807D01*
X030151Y022807D01*
X030151Y015327D01*
X026329Y013651D02*
X026329Y013501D01*
X026254Y013426D01*
X026103Y013576D02*
X026103Y013651D01*
X026178Y013726D01*
X026254Y013726D01*
X026329Y013651D01*
X026103Y013651D02*
X026028Y013726D01*
X025953Y013726D01*
X025878Y013651D01*
X025878Y013501D01*
X025953Y013426D01*
X026103Y013266D02*
X026103Y012965D01*
X025878Y013191D01*
X026329Y013191D01*
X026329Y012805D02*
X026329Y012505D01*
X025878Y012505D01*
X025108Y012505D02*
X025108Y012805D01*
X024883Y012965D02*
X024883Y013266D01*
X024883Y013426D02*
X024883Y013726D01*
X025108Y013651D02*
X024658Y013651D01*
X024883Y013426D01*
X025108Y013191D02*
X024658Y013191D01*
X024883Y012965D01*
X023927Y012923D02*
X023927Y012623D01*
X023477Y012623D01*
X023702Y013084D02*
X023702Y013384D01*
X023777Y013544D02*
X023702Y013619D01*
X023702Y013769D01*
X023777Y013844D01*
X023852Y013844D01*
X023927Y013769D01*
X023927Y013619D01*
X023852Y013544D01*
X023777Y013544D01*
X023702Y013619D02*
X023627Y013544D01*
X023552Y013544D01*
X023477Y013619D01*
X023477Y013769D01*
X023552Y013844D01*
X023627Y013844D01*
X023702Y013769D01*
X023927Y013309D02*
X023477Y013309D01*
X023702Y013084D01*
X024658Y012505D02*
X025108Y012505D01*
X027395Y011579D02*
X027986Y011579D01*
X027986Y009807D01*
X027395Y009807D01*
X027740Y010319D02*
X028191Y010319D01*
X028191Y010619D01*
X028191Y010779D02*
X028191Y011080D01*
X028191Y011240D02*
X027740Y011240D01*
X027740Y011465D01*
X027815Y011540D01*
X028115Y011540D01*
X028191Y011465D01*
X028191Y011240D01*
X028422Y011486D02*
X028873Y011486D01*
X028873Y011786D01*
X028647Y011947D02*
X028647Y012247D01*
X028798Y012407D02*
X028497Y012707D01*
X028422Y012707D01*
X028422Y012407D01*
X028422Y012172D02*
X028647Y011947D01*
X028873Y012172D02*
X028422Y012172D01*
X028191Y011925D02*
X028115Y012000D01*
X027815Y012000D01*
X027740Y011925D01*
X027740Y011775D01*
X027815Y011700D01*
X027890Y011700D01*
X027965Y011775D01*
X027965Y012000D01*
X028191Y011925D02*
X028191Y011775D01*
X028115Y011700D01*
X027740Y011080D02*
X027740Y010779D01*
X028191Y010779D01*
X027965Y010779D02*
X027965Y010930D01*
X027395Y011578D02*
X027341Y011576D01*
X027288Y011571D01*
X027235Y011562D01*
X027183Y011549D01*
X027131Y011533D01*
X027081Y011513D01*
X027033Y011490D01*
X026986Y011463D01*
X026941Y011434D01*
X026898Y011401D01*
X026858Y011366D01*
X026820Y011328D01*
X026785Y011288D01*
X026752Y011245D01*
X026723Y011200D01*
X026696Y011153D01*
X026673Y011105D01*
X026653Y011055D01*
X026637Y011003D01*
X026624Y010951D01*
X026615Y010898D01*
X026610Y010845D01*
X026608Y010791D01*
X026608Y010594D01*
X026610Y010540D01*
X026615Y010487D01*
X026624Y010434D01*
X026637Y010382D01*
X026653Y010330D01*
X026673Y010280D01*
X026696Y010232D01*
X026723Y010185D01*
X026752Y010140D01*
X026785Y010097D01*
X026820Y010057D01*
X026858Y010019D01*
X026898Y009984D01*
X026941Y009951D01*
X026986Y009922D01*
X027033Y009895D01*
X027081Y009872D01*
X027131Y009852D01*
X027183Y009836D01*
X027235Y009823D01*
X027288Y009814D01*
X027341Y009809D01*
X027395Y009807D01*
X028798Y012407D02*
X028873Y012407D01*
X023962Y015327D02*
X018844Y015327D01*
X018844Y022807D01*
X023962Y022807D01*
X023962Y015327D01*
X021584Y011937D02*
X021284Y011937D01*
X021584Y011637D01*
X021659Y011712D01*
X021659Y011862D01*
X021584Y011937D01*
X021411Y012012D02*
X021411Y010240D01*
X020820Y010240D01*
X021209Y010256D02*
X021209Y010556D01*
X021209Y010716D02*
X021209Y010942D01*
X021284Y011017D01*
X021584Y011017D01*
X021659Y010942D01*
X021659Y010716D01*
X021209Y010716D01*
X021434Y010406D02*
X021434Y010256D01*
X021209Y010256D02*
X021659Y010256D01*
X021659Y010556D01*
X021659Y011177D02*
X021659Y011477D01*
X021659Y011327D02*
X021209Y011327D01*
X021359Y011177D01*
X020820Y012011D02*
X020766Y012009D01*
X020713Y012004D01*
X020660Y011995D01*
X020608Y011982D01*
X020556Y011966D01*
X020506Y011946D01*
X020458Y011923D01*
X020411Y011896D01*
X020366Y011867D01*
X020323Y011834D01*
X020283Y011799D01*
X020245Y011761D01*
X020210Y011721D01*
X020177Y011678D01*
X020148Y011633D01*
X020121Y011586D01*
X020098Y011538D01*
X020078Y011488D01*
X020062Y011436D01*
X020049Y011384D01*
X020040Y011331D01*
X020035Y011278D01*
X020033Y011224D01*
X020033Y011027D01*
X020035Y010973D01*
X020040Y010920D01*
X020049Y010867D01*
X020062Y010815D01*
X020078Y010763D01*
X020098Y010713D01*
X020121Y010665D01*
X020148Y010618D01*
X020177Y010573D01*
X020210Y010530D01*
X020245Y010490D01*
X020283Y010452D01*
X020323Y010417D01*
X020366Y010384D01*
X020411Y010355D01*
X020458Y010328D01*
X020506Y010305D01*
X020556Y010285D01*
X020608Y010269D01*
X020660Y010256D01*
X020713Y010247D01*
X020766Y010242D01*
X020820Y010240D01*
X021209Y009796D02*
X021659Y009796D01*
X021659Y010096D01*
X021584Y011637D02*
X021284Y011637D01*
X021209Y011712D01*
X021209Y011862D01*
X021284Y011937D01*
X021411Y012012D02*
X020820Y012012D01*
X013988Y007411D02*
X013988Y007261D01*
X013913Y007186D01*
X013838Y007025D02*
X013538Y007025D01*
X013613Y007186D02*
X013538Y007261D01*
X013538Y007411D01*
X013613Y007486D01*
X013688Y007486D01*
X013763Y007411D01*
X013838Y007486D01*
X013913Y007486D01*
X013988Y007411D01*
X013763Y007411D02*
X013763Y007336D01*
X013838Y007025D02*
X013988Y006875D01*
X013838Y006725D01*
X013538Y006725D01*
X010967Y006136D02*
X010892Y006211D01*
X010592Y006211D01*
X010517Y006136D01*
X010517Y005986D01*
X010592Y005911D01*
X010667Y005911D01*
X010742Y005986D01*
X010742Y006211D01*
X010967Y006136D02*
X010967Y005986D01*
X010892Y005911D01*
X010742Y005751D02*
X010742Y005451D01*
X010517Y005676D01*
X010967Y005676D01*
X010967Y005290D02*
X010967Y004990D01*
X010517Y004990D01*
X010930Y002014D02*
X011005Y002014D01*
X011081Y001939D01*
X011156Y002014D01*
X011231Y002014D01*
X011306Y001939D01*
X011306Y001789D01*
X011231Y001714D01*
X011231Y001554D02*
X011306Y001479D01*
X011306Y001329D01*
X011231Y001254D01*
X010930Y001254D01*
X010855Y001329D01*
X010855Y001479D01*
X010930Y001554D01*
X010930Y001714D02*
X010855Y001789D01*
X010855Y001939D01*
X010930Y002014D01*
X011081Y001939D02*
X011081Y001864D01*
X003222Y005988D02*
X002631Y005988D01*
X002631Y007760D01*
X003222Y007760D01*
X003222Y007759D02*
X003276Y007757D01*
X003329Y007752D01*
X003382Y007743D01*
X003434Y007730D01*
X003486Y007714D01*
X003536Y007694D01*
X003584Y007671D01*
X003631Y007644D01*
X003676Y007615D01*
X003719Y007582D01*
X003759Y007547D01*
X003797Y007509D01*
X003832Y007469D01*
X003865Y007426D01*
X003894Y007381D01*
X003921Y007334D01*
X003944Y007286D01*
X003964Y007236D01*
X003980Y007184D01*
X003993Y007132D01*
X004002Y007079D01*
X004007Y007026D01*
X004009Y006972D01*
X004009Y006775D01*
X004007Y006721D01*
X004002Y006668D01*
X003993Y006615D01*
X003980Y006563D01*
X003964Y006511D01*
X003944Y006461D01*
X003921Y006413D01*
X003894Y006366D01*
X003865Y006321D01*
X003832Y006278D01*
X003797Y006238D01*
X003759Y006200D01*
X003719Y006165D01*
X003676Y006132D01*
X003631Y006103D01*
X003584Y006076D01*
X003536Y006053D01*
X003486Y006033D01*
X003434Y006017D01*
X003382Y006004D01*
X003329Y005995D01*
X003276Y005990D01*
X003222Y005988D01*
X003673Y010970D02*
X004124Y010970D01*
X004124Y011270D01*
X003899Y011430D02*
X003899Y011730D01*
X003824Y011890D02*
X003673Y012041D01*
X004124Y012041D01*
X004124Y012191D02*
X004124Y011890D01*
X004124Y011655D02*
X003673Y011655D01*
X003899Y011430D01*
X005059Y011576D02*
X005284Y011351D01*
X005284Y011652D01*
X005134Y011812D02*
X005059Y011887D01*
X005059Y012037D01*
X005134Y012112D01*
X005435Y011812D01*
X005510Y011887D01*
X005510Y012037D01*
X005435Y012112D01*
X005134Y012112D01*
X005134Y011812D02*
X005435Y011812D01*
X005510Y011576D02*
X005059Y011576D01*
X005510Y011191D02*
X005510Y010891D01*
X005059Y010891D01*
X009414Y012702D02*
X009864Y012702D01*
X009864Y013002D01*
X009789Y013162D02*
X009864Y013237D01*
X009864Y013387D01*
X009789Y013463D01*
X009639Y013463D01*
X009564Y013387D01*
X009564Y013312D01*
X009639Y013162D01*
X009414Y013162D01*
X009414Y013463D01*
X009489Y013623D02*
X009414Y013698D01*
X009414Y013848D01*
X009489Y013923D01*
X009564Y013923D01*
X009864Y013623D01*
X009864Y013923D01*
X006872Y014065D02*
X006872Y013765D01*
X006421Y013765D01*
X006421Y014225D02*
X006647Y014225D01*
X006572Y014375D01*
X006572Y014450D01*
X006647Y014526D01*
X006797Y014526D01*
X006872Y014450D01*
X006872Y014300D01*
X006797Y014225D01*
X006421Y014225D02*
X006421Y014526D01*
X006572Y014686D02*
X006421Y014836D01*
X006872Y014836D01*
X006872Y014686D02*
X006872Y014986D01*
X007871Y017473D02*
X007871Y017623D01*
X007871Y017548D02*
X008321Y017548D01*
X008321Y017473D02*
X008321Y017623D01*
X008246Y017780D02*
X008321Y017855D01*
X008321Y018005D01*
X008246Y018080D01*
X008096Y018241D02*
X008096Y018541D01*
X007871Y018466D02*
X008096Y018241D01*
X007946Y018080D02*
X007871Y018005D01*
X007871Y017855D01*
X007946Y017780D01*
X008246Y017780D01*
X008321Y018466D02*
X007871Y018466D01*
X016021Y018337D02*
X016471Y018337D01*
X016471Y018637D01*
X016246Y018797D02*
X016246Y019097D01*
X016246Y019257D02*
X016021Y019257D01*
X016021Y019558D01*
X016171Y019483D02*
X016246Y019558D01*
X016396Y019558D01*
X016471Y019483D01*
X016471Y019332D01*
X016396Y019257D01*
X016246Y019257D02*
X016171Y019407D01*
X016171Y019483D01*
X016021Y019022D02*
X016246Y018797D01*
X016471Y019022D02*
X016021Y019022D01*
X010541Y023674D02*
X010091Y023674D01*
X010541Y023674D02*
X010541Y023974D01*
X010541Y024135D02*
X010241Y024435D01*
X010166Y024435D01*
X010091Y024360D01*
X010091Y024210D01*
X010166Y024135D01*
X010541Y024135D02*
X010541Y024435D01*
X012374Y024442D02*
X012825Y024442D01*
X012825Y024292D02*
X012825Y024592D01*
X012524Y024292D02*
X012374Y024442D01*
X012825Y024132D02*
X012825Y023832D01*
X012374Y023832D01*
X016272Y024383D02*
X016722Y024383D01*
X016722Y024683D01*
X016647Y024843D02*
X016722Y024918D01*
X016722Y025068D01*
X016647Y025143D01*
X016572Y025143D01*
X016497Y025068D01*
X016497Y024993D01*
X016497Y025068D02*
X016422Y025143D01*
X016347Y025143D01*
X016272Y025068D01*
X016272Y024918D01*
X016347Y024843D01*
X020054Y024623D02*
X020054Y024173D01*
X020354Y024173D01*
X020514Y024248D02*
X020589Y024173D01*
X020740Y024173D01*
X020815Y024248D01*
X020815Y024323D01*
X020740Y024398D01*
X020665Y024398D01*
X020740Y024398D02*
X020815Y024473D01*
X020815Y024548D01*
X020740Y024623D01*
X020589Y024623D01*
X020514Y024548D01*
X020975Y024548D02*
X020975Y024473D01*
X021050Y024398D01*
X021200Y024398D01*
X021275Y024323D01*
X021275Y024248D01*
X021200Y024173D01*
X021050Y024173D01*
X020975Y024248D01*
X020975Y024323D01*
X021050Y024398D01*
X021200Y024398D02*
X021275Y024473D01*
X021275Y024548D01*
X021200Y024623D01*
X021050Y024623D01*
X020975Y024548D01*
X026201Y025537D02*
X026651Y025537D01*
X026651Y025837D01*
X026576Y025997D02*
X026651Y026072D01*
X026651Y026222D01*
X026576Y026297D01*
X026501Y026297D01*
X026426Y026222D01*
X026426Y026147D01*
X026426Y026222D02*
X026351Y026297D01*
X026276Y026297D01*
X026201Y026222D01*
X026201Y026072D01*
X026276Y025997D01*
X026201Y026457D02*
X026201Y026758D01*
X026276Y026758D01*
X026576Y026457D01*
X026651Y026457D01*
X027831Y026340D02*
X027831Y026190D01*
X027906Y026115D01*
X027831Y026340D02*
X027906Y026415D01*
X027981Y026415D01*
X028281Y026115D01*
X028281Y026415D01*
X028206Y026575D02*
X027906Y026876D01*
X028206Y026876D01*
X028281Y026801D01*
X028281Y026650D01*
X028206Y026575D01*
X027906Y026575D01*
X027831Y026650D01*
X027831Y026801D01*
X027906Y026876D01*
X028281Y025955D02*
X028281Y025655D01*
X027831Y025655D01*
X029445Y025615D02*
X029895Y025615D01*
X029895Y025916D01*
X029895Y026076D02*
X029595Y026376D01*
X029520Y026376D01*
X029445Y026301D01*
X029445Y026151D01*
X029520Y026076D01*
X029895Y026076D02*
X029895Y026376D01*
X029895Y026536D02*
X029895Y026836D01*
X029895Y026686D02*
X029445Y026686D01*
X029595Y026536D01*
X026421Y029639D02*
X026120Y029639D01*
X026120Y029939D02*
X026421Y029939D01*
X026571Y029789D01*
X026421Y029639D01*
X026571Y030099D02*
X026270Y030399D01*
X026195Y030399D01*
X026120Y030324D01*
X026120Y030174D01*
X026195Y030099D01*
X026571Y030099D02*
X026571Y030399D01*
X025919Y031206D02*
X025469Y031206D01*
X025919Y031206D02*
X025919Y031506D01*
X025919Y031666D02*
X025619Y031966D01*
X025544Y031966D01*
X025469Y031891D01*
X025469Y031741D01*
X025544Y031666D01*
X025919Y031666D02*
X025919Y031966D01*
X025694Y032127D02*
X025694Y032427D01*
X025919Y032352D02*
X025469Y032352D01*
X025694Y032127D01*
X023103Y031207D02*
X023103Y030907D01*
X023103Y031057D02*
X022652Y031057D01*
X022802Y030907D01*
X022727Y030747D02*
X022652Y030672D01*
X022652Y030522D01*
X022727Y030447D01*
X023028Y030447D01*
X023103Y030522D01*
X023103Y030672D01*
X023028Y030747D01*
X022877Y030747D01*
X022877Y030597D01*
X017768Y031194D02*
X017768Y031494D01*
X017693Y031654D02*
X017768Y031730D01*
X017768Y031880D01*
X017693Y031955D01*
X017618Y031955D01*
X017543Y031880D01*
X017543Y031730D01*
X017468Y031654D01*
X017393Y031654D01*
X017318Y031730D01*
X017318Y031880D01*
X017393Y031955D01*
X017393Y032115D02*
X017468Y032115D01*
X017543Y032190D01*
X017543Y032340D01*
X017618Y032415D01*
X017693Y032415D01*
X017768Y032340D01*
X017768Y032190D01*
X017693Y032115D01*
X017618Y032115D01*
X017543Y032190D01*
X017543Y032340D02*
X017468Y032415D01*
X017393Y032415D01*
X017318Y032340D01*
X017318Y032190D01*
X017393Y032115D01*
X017243Y031805D02*
X017843Y031805D01*
X017543Y031344D02*
X017543Y031194D01*
X017318Y031194D02*
X017768Y031194D01*
X017318Y031194D02*
X017318Y031494D01*
X016603Y031207D02*
X016452Y031357D01*
X016152Y031357D01*
X016152Y031057D02*
X016452Y031057D01*
X016603Y031207D01*
X016528Y030897D02*
X016603Y030822D01*
X016603Y030671D01*
X016528Y030596D01*
X016528Y030441D02*
X016603Y030441D01*
X016603Y030366D01*
X016528Y030366D01*
X016528Y030441D01*
X016603Y030210D02*
X016528Y030134D01*
X016227Y030134D01*
X016302Y030059D02*
X016302Y030210D01*
X016302Y029828D02*
X016603Y029828D01*
X016603Y029753D02*
X016603Y029903D01*
X016302Y029828D02*
X016302Y029753D01*
X016152Y029828D02*
X016077Y029828D01*
X016603Y029592D02*
X016603Y029292D01*
X016152Y029292D01*
X016227Y030596D02*
X016152Y030671D01*
X016152Y030822D01*
X016227Y030897D01*
X016302Y030897D01*
X016377Y030822D01*
X016452Y030897D01*
X016528Y030897D01*
X016377Y030822D02*
X016377Y030747D01*
X012513Y030575D02*
X008380Y030575D01*
X008318Y030577D01*
X008257Y030583D01*
X008196Y030592D01*
X008135Y030606D01*
X008076Y030623D01*
X008018Y030644D01*
X007961Y030669D01*
X007906Y030697D01*
X007853Y030728D01*
X007802Y030763D01*
X007753Y030801D01*
X007706Y030842D01*
X007663Y030885D01*
X007622Y030932D01*
X007584Y030981D01*
X007549Y031032D01*
X007518Y031085D01*
X007490Y031140D01*
X007465Y031197D01*
X007444Y031255D01*
X007427Y031314D01*
X007413Y031375D01*
X007404Y031436D01*
X007398Y031497D01*
X007396Y031559D01*
X007395Y031559D02*
X007397Y031622D01*
X007403Y031684D01*
X007413Y031746D01*
X007426Y031807D01*
X007444Y031867D01*
X007465Y031926D01*
X007490Y031984D01*
X007518Y032039D01*
X007550Y032093D01*
X007585Y032145D01*
X007623Y032195D01*
X007664Y032242D01*
X007708Y032286D01*
X007755Y032328D01*
X007805Y032367D01*
X007856Y032402D01*
X007910Y032434D01*
X007966Y032463D01*
X008023Y032488D01*
X008082Y032509D01*
X008142Y032527D01*
X008203Y032541D01*
X008265Y032551D01*
X008327Y032558D01*
X008390Y032560D01*
X008452Y032558D01*
X008515Y032553D01*
X008576Y032544D01*
X008576Y032543D02*
X012513Y032543D01*
X013497Y031559D02*
X013495Y031497D01*
X013489Y031436D01*
X013480Y031375D01*
X013466Y031314D01*
X013449Y031255D01*
X013428Y031197D01*
X013403Y031140D01*
X013375Y031085D01*
X013344Y031032D01*
X013309Y030981D01*
X013271Y030932D01*
X013230Y030885D01*
X013187Y030842D01*
X013140Y030801D01*
X013091Y030763D01*
X013040Y030728D01*
X012987Y030697D01*
X012932Y030669D01*
X012875Y030644D01*
X012817Y030623D01*
X012758Y030606D01*
X012697Y030592D01*
X012636Y030583D01*
X012575Y030577D01*
X012513Y030575D01*
X013497Y031559D02*
X013495Y031621D01*
X013489Y031682D01*
X013480Y031743D01*
X013466Y031804D01*
X013449Y031863D01*
X013428Y031921D01*
X013403Y031978D01*
X013375Y032033D01*
X013344Y032086D01*
X013309Y032137D01*
X013271Y032186D01*
X013230Y032233D01*
X013187Y032276D01*
X013140Y032317D01*
X013091Y032355D01*
X013040Y032390D01*
X012987Y032421D01*
X012932Y032449D01*
X012875Y032474D01*
X012817Y032495D01*
X012758Y032512D01*
X012697Y032526D01*
X012636Y032535D01*
X012575Y032541D01*
X012513Y032543D01*
X010768Y033869D02*
X010693Y033794D01*
X010543Y033794D01*
X010468Y033869D01*
X010768Y034169D01*
X010768Y033869D01*
X010468Y033869D02*
X010468Y034169D01*
X010543Y034244D01*
X010693Y034244D01*
X010768Y034169D01*
X010308Y034244D02*
X010007Y034244D01*
X010007Y034019D01*
X010158Y034094D01*
X010233Y034094D01*
X010308Y034019D01*
X010308Y033869D01*
X010233Y033794D01*
X010082Y033794D01*
X010007Y033869D01*
X009847Y033794D02*
X009547Y033794D01*
X009547Y034244D01*
X011163Y028597D02*
X011088Y028522D01*
X011088Y028372D01*
X011163Y028297D01*
X011163Y028137D02*
X011088Y028062D01*
X011088Y027911D01*
X011163Y027836D01*
X011464Y027836D01*
X011539Y027911D01*
X011539Y028062D01*
X011464Y028137D01*
X011539Y028297D02*
X011239Y028597D01*
X011163Y028597D01*
X011539Y028597D02*
X011539Y028297D01*
X011064Y027423D02*
X011064Y027123D01*
X011064Y027273D02*
X010614Y027273D01*
X010764Y027123D01*
X010689Y026963D02*
X010614Y026888D01*
X010614Y026738D01*
X010689Y026663D01*
X010989Y026663D01*
X011064Y026738D01*
X011064Y026888D01*
X010989Y026963D01*
X036765Y012051D02*
X037356Y012051D01*
X037356Y010279D01*
X036765Y010279D01*
X036913Y010280D02*
X037364Y010280D01*
X037364Y010580D01*
X037364Y010740D02*
X037364Y011040D01*
X037364Y011200D02*
X036913Y011200D01*
X036913Y011426D01*
X036988Y011501D01*
X037289Y011501D01*
X037364Y011426D01*
X037364Y011200D01*
X037517Y011526D02*
X037967Y011526D01*
X037967Y011826D01*
X037742Y011986D02*
X037517Y012211D01*
X037967Y012211D01*
X037742Y012286D02*
X037742Y011986D01*
X037364Y011886D02*
X037364Y011736D01*
X037289Y011661D01*
X037214Y011661D01*
X037139Y011736D01*
X037139Y011886D01*
X037214Y011961D01*
X037289Y011961D01*
X037364Y011886D01*
X037139Y011886D02*
X037064Y011961D01*
X036988Y011961D01*
X036913Y011886D01*
X036913Y011736D01*
X036988Y011661D01*
X037064Y011661D01*
X037139Y011736D01*
X036765Y012051D02*
X036711Y012049D01*
X036658Y012044D01*
X036605Y012035D01*
X036553Y012022D01*
X036501Y012006D01*
X036451Y011986D01*
X036403Y011963D01*
X036356Y011936D01*
X036311Y011907D01*
X036268Y011874D01*
X036228Y011839D01*
X036190Y011801D01*
X036155Y011761D01*
X036122Y011718D01*
X036093Y011673D01*
X036066Y011626D01*
X036043Y011578D01*
X036023Y011528D01*
X036007Y011476D01*
X035994Y011424D01*
X035985Y011371D01*
X035980Y011318D01*
X035978Y011264D01*
X035978Y011067D01*
X035980Y011013D01*
X035985Y010960D01*
X035994Y010907D01*
X036007Y010855D01*
X036023Y010803D01*
X036043Y010753D01*
X036066Y010705D01*
X036093Y010658D01*
X036122Y010613D01*
X036155Y010570D01*
X036190Y010530D01*
X036228Y010492D01*
X036268Y010457D01*
X036311Y010424D01*
X036356Y010395D01*
X036403Y010368D01*
X036451Y010345D01*
X036501Y010325D01*
X036553Y010309D01*
X036605Y010296D01*
X036658Y010287D01*
X036711Y010282D01*
X036765Y010280D01*
X036913Y010740D02*
X037364Y010740D01*
X037139Y010740D02*
X037139Y010890D01*
X036913Y011040D02*
X036913Y010740D01*
X037742Y012446D02*
X037742Y012671D01*
X037817Y012747D01*
X037892Y012747D01*
X037967Y012671D01*
X037967Y012521D01*
X037892Y012446D01*
X037742Y012446D01*
X037592Y012596D01*
X037517Y012747D01*
X040406Y012584D02*
X040856Y012584D01*
X040856Y012884D01*
X040631Y013044D02*
X040406Y013269D01*
X040856Y013269D01*
X040856Y013505D02*
X040556Y013805D01*
X040481Y013805D01*
X040406Y013730D01*
X040406Y013580D01*
X040481Y013505D01*
X040631Y013344D02*
X040631Y013044D01*
X040856Y013505D02*
X040856Y013805D01*
X041437Y013612D02*
X041437Y013461D01*
X041512Y013386D01*
X041587Y013386D01*
X041662Y013461D01*
X041662Y013687D01*
X041512Y013687D02*
X041437Y013612D01*
X041512Y013687D02*
X041813Y013687D01*
X041888Y013612D01*
X041888Y013461D01*
X041813Y013386D01*
X041813Y013226D02*
X041888Y013151D01*
X041888Y013001D01*
X041813Y012926D01*
X041888Y012766D02*
X041888Y012466D01*
X041437Y012466D01*
X041512Y012926D02*
X041437Y013001D01*
X041437Y013151D01*
X041512Y013226D01*
X041587Y013226D01*
X041662Y013151D01*
X041737Y013226D01*
X041813Y013226D01*
X041662Y013151D02*
X041662Y013076D01*
X042937Y011922D02*
X043012Y011922D01*
X043312Y011621D01*
X043387Y011621D01*
X043312Y011461D02*
X043012Y011461D01*
X042937Y011386D01*
X042937Y011161D01*
X043387Y011161D01*
X043387Y011386D01*
X043312Y011461D01*
X043183Y011657D02*
X042986Y011657D01*
X042937Y011621D02*
X042937Y011922D01*
X042937Y011001D02*
X042937Y010701D01*
X043387Y010701D01*
X043387Y011001D01*
X043970Y010870D02*
X043968Y010924D01*
X043963Y010977D01*
X043954Y011030D01*
X043941Y011082D01*
X043925Y011134D01*
X043905Y011184D01*
X043882Y011232D01*
X043855Y011279D01*
X043826Y011324D01*
X043793Y011367D01*
X043758Y011407D01*
X043720Y011445D01*
X043680Y011480D01*
X043637Y011513D01*
X043592Y011542D01*
X043545Y011569D01*
X043497Y011592D01*
X043447Y011612D01*
X043395Y011628D01*
X043343Y011641D01*
X043290Y011650D01*
X043237Y011655D01*
X043183Y011657D01*
X043162Y010851D02*
X043162Y010701D01*
X042986Y011657D02*
X042932Y011655D01*
X042879Y011650D01*
X042826Y011641D01*
X042774Y011628D01*
X042722Y011612D01*
X042672Y011592D01*
X042624Y011569D01*
X042577Y011542D01*
X042532Y011513D01*
X042489Y011480D01*
X042449Y011445D01*
X042411Y011407D01*
X042376Y011367D01*
X042343Y011324D01*
X042314Y011279D01*
X042287Y011232D01*
X042264Y011184D01*
X042244Y011134D01*
X042228Y011082D01*
X042215Y011030D01*
X042206Y010977D01*
X042201Y010924D01*
X042199Y010870D01*
X042198Y010870D02*
X042198Y010279D01*
X043970Y010279D01*
X043970Y010870D01*
X043387Y010541D02*
X043387Y010240D01*
X042937Y010240D01*
X040978Y006684D02*
X040978Y006383D01*
X040753Y006609D01*
X041203Y006609D01*
X041203Y006223D02*
X041203Y005923D01*
X041203Y006073D02*
X040753Y006073D01*
X040903Y005923D01*
X041203Y005763D02*
X041203Y005463D01*
X040753Y005463D01*
X039865Y005384D02*
X039865Y005684D01*
X039865Y005844D02*
X039865Y006144D01*
X039865Y005994D02*
X039414Y005994D01*
X039565Y005844D01*
X039414Y005384D02*
X039865Y005384D01*
X038534Y005463D02*
X038534Y005763D01*
X038534Y005923D02*
X038534Y006223D01*
X038534Y006073D02*
X038084Y006073D01*
X038234Y005923D01*
X038084Y005463D02*
X038534Y005463D01*
X037195Y005384D02*
X037195Y005684D01*
X037195Y005844D02*
X037195Y006144D01*
X037195Y005994D02*
X036745Y005994D01*
X036895Y005844D01*
X036745Y005384D02*
X037195Y005384D01*
X035896Y005423D02*
X035896Y005724D01*
X035896Y005884D02*
X035896Y006184D01*
X035896Y006034D02*
X035446Y006034D01*
X035596Y005884D01*
X035446Y005423D02*
X035896Y005423D01*
X035821Y006344D02*
X035896Y006419D01*
X035896Y006569D01*
X035821Y006644D01*
X035521Y006644D01*
X035446Y006569D01*
X035446Y006419D01*
X035521Y006344D01*
X035596Y006344D01*
X035671Y006419D01*
X035671Y006644D01*
X036745Y006530D02*
X036820Y006605D01*
X036895Y006605D01*
X036970Y006530D01*
X036970Y006380D01*
X036895Y006305D01*
X036820Y006305D01*
X036745Y006380D01*
X036745Y006530D01*
X036970Y006530D02*
X037045Y006605D01*
X037120Y006605D01*
X037195Y006530D01*
X037195Y006380D01*
X037120Y006305D01*
X037045Y006305D01*
X036970Y006380D01*
X038084Y006383D02*
X038084Y006684D01*
X038159Y006684D01*
X038459Y006383D01*
X038534Y006383D01*
X039414Y006305D02*
X039640Y006305D01*
X039565Y006455D01*
X039565Y006530D01*
X039640Y006605D01*
X039790Y006605D01*
X039865Y006530D01*
X039865Y006380D01*
X039790Y006305D01*
X039414Y006305D02*
X039414Y006605D01*
X042052Y006490D02*
X042127Y006565D01*
X042202Y006565D01*
X042277Y006490D01*
X042352Y006565D01*
X042428Y006565D01*
X042503Y006490D01*
X042503Y006340D01*
X042428Y006265D01*
X042503Y006105D02*
X042503Y005805D01*
X042503Y005955D02*
X042052Y005955D01*
X042202Y005805D01*
X042503Y005645D02*
X042503Y005345D01*
X042052Y005345D01*
X042127Y006265D02*
X042052Y006340D01*
X042052Y006490D01*
X042277Y006490D02*
X042277Y006415D01*
X043588Y006451D02*
X043588Y006301D01*
X043663Y006226D01*
X043588Y006451D02*
X043663Y006526D01*
X043738Y006526D01*
X044038Y006226D01*
X044038Y006526D01*
X044038Y006066D02*
X044038Y005766D01*
X044038Y005916D02*
X043588Y005916D01*
X043738Y005766D01*
X044038Y005605D02*
X044038Y005305D01*
X043588Y005305D01*
X045241Y005305D02*
X045692Y005305D01*
X045692Y005605D01*
X045692Y005766D02*
X045692Y006066D01*
X045692Y005916D02*
X045241Y005916D01*
X045391Y005766D01*
X045466Y006226D02*
X045466Y006451D01*
X045541Y006526D01*
X045616Y006526D01*
X045692Y006451D01*
X045692Y006301D01*
X045616Y006226D01*
X045466Y006226D01*
X045316Y006376D01*
X045241Y006526D01*
X051904Y005663D02*
X051904Y005212D01*
X052205Y005212D01*
X052365Y005287D02*
X052440Y005212D01*
X052590Y005212D01*
X052665Y005287D01*
X052665Y005437D01*
X052590Y005512D01*
X052515Y005512D01*
X052365Y005437D01*
X052365Y005663D01*
X052665Y005663D01*
X052825Y005588D02*
X052900Y005663D01*
X053050Y005663D01*
X053125Y005588D01*
X053125Y005512D01*
X053050Y005437D01*
X053125Y005362D01*
X053125Y005287D01*
X053050Y005212D01*
X052900Y005212D01*
X052825Y005287D01*
X052975Y005437D02*
X053050Y005437D01*
X054810Y012018D02*
X055110Y012018D01*
X055260Y012168D01*
X055110Y012318D01*
X054810Y012318D01*
X054960Y012478D02*
X054810Y012628D01*
X055260Y012628D01*
X055260Y012478D02*
X055260Y012778D01*
X055828Y016472D02*
X055828Y019228D01*
X058584Y019228D01*
X058584Y016472D01*
X055828Y016472D01*
X050813Y018571D02*
X050513Y018571D01*
X050663Y018571D02*
X050663Y019021D01*
X050513Y018871D01*
X050353Y018946D02*
X050353Y018646D01*
X050278Y018571D01*
X050053Y018571D01*
X050053Y019021D01*
X050278Y019021D01*
X050353Y018946D01*
X049892Y019021D02*
X049592Y019021D01*
X049592Y018571D01*
X049892Y018571D01*
X049742Y018796D02*
X049592Y018796D01*
X049432Y018571D02*
X049132Y018571D01*
X049132Y019021D01*
X034581Y006069D02*
X034581Y005919D01*
X034506Y005844D01*
X034431Y005844D01*
X034356Y005919D01*
X034356Y006069D01*
X034431Y006144D01*
X034506Y006144D01*
X034581Y006069D01*
X034356Y006069D02*
X034281Y006144D01*
X034206Y006144D01*
X034131Y006069D01*
X034131Y005919D01*
X034206Y005844D01*
X034281Y005844D01*
X034356Y005919D01*
X034581Y005684D02*
X034581Y005384D01*
X034131Y005384D01*
X033125Y005384D02*
X033125Y005684D01*
X033050Y005844D02*
X033125Y005919D01*
X033125Y006069D01*
X033050Y006144D01*
X032899Y006144D01*
X032824Y006069D01*
X032824Y005994D01*
X032899Y005844D01*
X032674Y005844D01*
X032674Y006144D01*
X031668Y006069D02*
X031218Y006069D01*
X031443Y005844D01*
X031443Y006144D01*
X031668Y005684D02*
X031668Y005384D01*
X031218Y005384D01*
X030172Y005463D02*
X030172Y005763D01*
X030097Y005923D02*
X030172Y005998D01*
X030172Y006148D01*
X030097Y006223D01*
X030022Y006223D01*
X029947Y006148D01*
X029947Y005923D01*
X030097Y005923D01*
X029947Y005923D02*
X029797Y006073D01*
X029721Y006223D01*
X029721Y005463D02*
X030172Y005463D01*
X028597Y005384D02*
X028597Y005684D01*
X028597Y005844D02*
X028522Y005844D01*
X028222Y006144D01*
X028147Y006144D01*
X028147Y005844D01*
X028147Y005384D02*
X028597Y005384D01*
X026951Y005502D02*
X026951Y005802D01*
X026876Y005962D02*
X026951Y006037D01*
X026951Y006188D01*
X026876Y006263D01*
X026576Y006263D01*
X026501Y006188D01*
X026501Y006037D01*
X026576Y005962D01*
X026651Y005962D01*
X026726Y006037D01*
X026726Y006263D01*
X026501Y005502D02*
X026951Y005502D01*
X025101Y005541D02*
X025101Y005842D01*
X025101Y006002D02*
X025101Y006302D01*
X025101Y006152D02*
X024651Y006152D01*
X024801Y006002D01*
X024726Y006462D02*
X024651Y006537D01*
X024651Y006687D01*
X024726Y006762D01*
X025026Y006462D01*
X025101Y006537D01*
X025101Y006687D01*
X025026Y006762D01*
X024726Y006762D01*
X024726Y006462D02*
X025026Y006462D01*
X023329Y006462D02*
X023329Y006762D01*
X023329Y006612D02*
X022879Y006612D01*
X023029Y006462D01*
X023329Y006302D02*
X023329Y006002D01*
X023329Y006152D02*
X022879Y006152D01*
X023029Y006002D01*
X023329Y005842D02*
X023329Y005541D01*
X022879Y005541D01*
X024651Y005541D02*
X025101Y005541D01*
X032674Y005384D02*
X033125Y005384D01*
D17*
X035929Y012346D02*
X037429Y012346D01*
X041952Y012307D02*
X043452Y012307D01*
X051198Y018506D02*
X051198Y020006D01*
X032704Y019709D02*
X031204Y019709D01*
X031248Y016023D02*
X032748Y016023D01*
X028256Y012386D02*
X026756Y012386D01*
X021724Y012323D02*
X020224Y012323D01*
X011971Y011705D02*
X011671Y011705D01*
X011671Y011605D01*
X011671Y011705D02*
X011371Y011705D01*
X011371Y013705D01*
X011671Y013705D01*
X011671Y013805D01*
X011671Y013705D02*
X011971Y013705D01*
X011971Y011705D01*
X011921Y013455D02*
X011421Y013455D01*
X008600Y008343D02*
X006600Y008343D01*
X006600Y008043D01*
X006500Y008043D01*
X006600Y008043D02*
X006600Y007743D01*
X008600Y007743D01*
X008600Y008043D01*
X008700Y008043D01*
X008600Y008043D02*
X008600Y008343D01*
X008350Y008293D02*
X008350Y007793D01*
X010569Y022183D02*
X010569Y022283D01*
X010269Y022283D01*
X010269Y024283D01*
X010569Y024283D01*
X010569Y024383D01*
X010569Y024283D02*
X010869Y024283D01*
X010869Y022283D01*
X010569Y022283D01*
X010819Y022533D02*
X010319Y022533D01*
X009168Y026437D02*
X008868Y026437D01*
X008868Y026337D01*
X008868Y026437D02*
X008568Y026437D01*
X008568Y028437D01*
X008868Y028437D01*
X008868Y028537D01*
X008868Y028437D02*
X009168Y028437D01*
X009168Y026437D01*
X009118Y028187D02*
X008618Y028187D01*
D18*
X014628Y030092D02*
X014628Y030592D01*
X021128Y030342D02*
X021628Y030342D01*
X021378Y030592D02*
X021378Y030092D01*
X031204Y019709D02*
X031150Y019752D01*
X031098Y019798D01*
X031049Y019847D01*
X031002Y019899D01*
X030959Y019953D01*
X030918Y020009D01*
X030881Y020068D01*
X030847Y020128D01*
X030817Y020191D01*
X030790Y020254D01*
X030766Y020320D01*
X030746Y020386D01*
X030730Y020454D01*
X030718Y020522D01*
X030710Y020591D01*
X030705Y020660D01*
X030704Y020730D01*
X030707Y020799D01*
X030714Y020868D01*
X030725Y020936D01*
X030739Y021004D01*
X030758Y021071D01*
X030780Y021137D01*
X030805Y021202D01*
X030834Y021265D01*
X030867Y021326D01*
X030903Y021385D01*
X030942Y021442D01*
X030984Y021498D01*
X031029Y021550D01*
X031077Y021600D01*
X031128Y021647D01*
X031182Y021692D01*
X031237Y021733D01*
X031295Y021771D01*
X031355Y021806D01*
X031417Y021838D01*
X031480Y021866D01*
X031545Y021890D01*
X031611Y021911D01*
X031679Y021928D01*
X031747Y021942D01*
X031816Y021951D01*
X031885Y021957D01*
X031954Y021959D01*
X032023Y021957D01*
X032092Y021951D01*
X032161Y021942D01*
X032229Y021928D01*
X032297Y021911D01*
X032363Y021890D01*
X032428Y021866D01*
X032491Y021838D01*
X032553Y021806D01*
X032613Y021771D01*
X032671Y021733D01*
X032726Y021692D01*
X032780Y021647D01*
X032831Y021600D01*
X032879Y021550D01*
X032924Y021498D01*
X032966Y021442D01*
X033005Y021385D01*
X033041Y021326D01*
X033074Y021265D01*
X033103Y021202D01*
X033128Y021137D01*
X033150Y021071D01*
X033169Y021004D01*
X033183Y020936D01*
X033194Y020868D01*
X033201Y020799D01*
X033204Y020730D01*
X033203Y020660D01*
X033198Y020591D01*
X033190Y020522D01*
X033178Y020454D01*
X033162Y020386D01*
X033142Y020320D01*
X033118Y020254D01*
X033091Y020191D01*
X033061Y020128D01*
X033027Y020068D01*
X032990Y020009D01*
X032949Y019953D01*
X032906Y019899D01*
X032859Y019847D01*
X032810Y019798D01*
X032758Y019752D01*
X032704Y019709D01*
X032748Y016023D02*
X032802Y016066D01*
X032854Y016112D01*
X032903Y016161D01*
X032950Y016213D01*
X032993Y016267D01*
X033034Y016323D01*
X033071Y016382D01*
X033105Y016442D01*
X033135Y016505D01*
X033162Y016568D01*
X033186Y016634D01*
X033206Y016700D01*
X033222Y016768D01*
X033234Y016836D01*
X033242Y016905D01*
X033247Y016974D01*
X033248Y017044D01*
X033245Y017113D01*
X033238Y017182D01*
X033227Y017250D01*
X033213Y017318D01*
X033194Y017385D01*
X033172Y017451D01*
X033147Y017516D01*
X033118Y017579D01*
X033085Y017640D01*
X033049Y017699D01*
X033010Y017756D01*
X032968Y017812D01*
X032923Y017864D01*
X032875Y017914D01*
X032824Y017961D01*
X032770Y018006D01*
X032715Y018047D01*
X032657Y018085D01*
X032597Y018120D01*
X032535Y018152D01*
X032472Y018180D01*
X032407Y018204D01*
X032341Y018225D01*
X032273Y018242D01*
X032205Y018256D01*
X032136Y018265D01*
X032067Y018271D01*
X031998Y018273D01*
X031929Y018271D01*
X031860Y018265D01*
X031791Y018256D01*
X031723Y018242D01*
X031655Y018225D01*
X031589Y018204D01*
X031524Y018180D01*
X031461Y018152D01*
X031399Y018120D01*
X031339Y018085D01*
X031281Y018047D01*
X031226Y018006D01*
X031172Y017961D01*
X031121Y017914D01*
X031073Y017864D01*
X031028Y017812D01*
X030986Y017756D01*
X030947Y017699D01*
X030911Y017640D01*
X030878Y017579D01*
X030849Y017516D01*
X030824Y017451D01*
X030802Y017385D01*
X030783Y017318D01*
X030769Y017250D01*
X030758Y017182D01*
X030751Y017113D01*
X030748Y017044D01*
X030749Y016974D01*
X030754Y016905D01*
X030762Y016836D01*
X030774Y016768D01*
X030790Y016700D01*
X030810Y016634D01*
X030834Y016568D01*
X030861Y016505D01*
X030891Y016442D01*
X030925Y016382D01*
X030962Y016323D01*
X031003Y016267D01*
X031046Y016213D01*
X031093Y016161D01*
X031142Y016112D01*
X031194Y016066D01*
X031248Y016023D01*
X028256Y012386D02*
X028310Y012429D01*
X028362Y012475D01*
X028411Y012524D01*
X028458Y012576D01*
X028501Y012630D01*
X028542Y012686D01*
X028579Y012745D01*
X028613Y012805D01*
X028643Y012868D01*
X028670Y012931D01*
X028694Y012997D01*
X028714Y013063D01*
X028730Y013131D01*
X028742Y013199D01*
X028750Y013268D01*
X028755Y013337D01*
X028756Y013407D01*
X028753Y013476D01*
X028746Y013545D01*
X028735Y013613D01*
X028721Y013681D01*
X028702Y013748D01*
X028680Y013814D01*
X028655Y013879D01*
X028626Y013942D01*
X028593Y014003D01*
X028557Y014062D01*
X028518Y014119D01*
X028476Y014175D01*
X028431Y014227D01*
X028383Y014277D01*
X028332Y014324D01*
X028278Y014369D01*
X028223Y014410D01*
X028165Y014448D01*
X028105Y014483D01*
X028043Y014515D01*
X027980Y014543D01*
X027915Y014567D01*
X027849Y014588D01*
X027781Y014605D01*
X027713Y014619D01*
X027644Y014628D01*
X027575Y014634D01*
X027506Y014636D01*
X027437Y014634D01*
X027368Y014628D01*
X027299Y014619D01*
X027231Y014605D01*
X027163Y014588D01*
X027097Y014567D01*
X027032Y014543D01*
X026969Y014515D01*
X026907Y014483D01*
X026847Y014448D01*
X026789Y014410D01*
X026734Y014369D01*
X026680Y014324D01*
X026629Y014277D01*
X026581Y014227D01*
X026536Y014175D01*
X026494Y014119D01*
X026455Y014062D01*
X026419Y014003D01*
X026386Y013942D01*
X026357Y013879D01*
X026332Y013814D01*
X026310Y013748D01*
X026291Y013681D01*
X026277Y013613D01*
X026266Y013545D01*
X026259Y013476D01*
X026256Y013407D01*
X026257Y013337D01*
X026262Y013268D01*
X026270Y013199D01*
X026282Y013131D01*
X026298Y013063D01*
X026318Y012997D01*
X026342Y012931D01*
X026369Y012868D01*
X026399Y012805D01*
X026433Y012745D01*
X026470Y012686D01*
X026511Y012630D01*
X026554Y012576D01*
X026601Y012524D01*
X026650Y012475D01*
X026702Y012429D01*
X026756Y012386D01*
X021724Y012323D02*
X021778Y012366D01*
X021830Y012412D01*
X021879Y012461D01*
X021926Y012513D01*
X021969Y012567D01*
X022010Y012623D01*
X022047Y012682D01*
X022081Y012742D01*
X022111Y012805D01*
X022138Y012868D01*
X022162Y012934D01*
X022182Y013000D01*
X022198Y013068D01*
X022210Y013136D01*
X022218Y013205D01*
X022223Y013274D01*
X022224Y013344D01*
X022221Y013413D01*
X022214Y013482D01*
X022203Y013550D01*
X022189Y013618D01*
X022170Y013685D01*
X022148Y013751D01*
X022123Y013816D01*
X022094Y013879D01*
X022061Y013940D01*
X022025Y013999D01*
X021986Y014056D01*
X021944Y014112D01*
X021899Y014164D01*
X021851Y014214D01*
X021800Y014261D01*
X021746Y014306D01*
X021691Y014347D01*
X021633Y014385D01*
X021573Y014420D01*
X021511Y014452D01*
X021448Y014480D01*
X021383Y014504D01*
X021317Y014525D01*
X021249Y014542D01*
X021181Y014556D01*
X021112Y014565D01*
X021043Y014571D01*
X020974Y014573D01*
X020905Y014571D01*
X020836Y014565D01*
X020767Y014556D01*
X020699Y014542D01*
X020631Y014525D01*
X020565Y014504D01*
X020500Y014480D01*
X020437Y014452D01*
X020375Y014420D01*
X020315Y014385D01*
X020257Y014347D01*
X020202Y014306D01*
X020148Y014261D01*
X020097Y014214D01*
X020049Y014164D01*
X020004Y014112D01*
X019962Y014056D01*
X019923Y013999D01*
X019887Y013940D01*
X019854Y013879D01*
X019825Y013816D01*
X019800Y013751D01*
X019778Y013685D01*
X019759Y013618D01*
X019745Y013550D01*
X019734Y013482D01*
X019727Y013413D01*
X019724Y013344D01*
X019725Y013274D01*
X019730Y013205D01*
X019738Y013136D01*
X019750Y013068D01*
X019766Y013000D01*
X019786Y012934D01*
X019810Y012868D01*
X019837Y012805D01*
X019867Y012742D01*
X019901Y012682D01*
X019938Y012623D01*
X019979Y012567D01*
X020022Y012513D01*
X020069Y012461D01*
X020118Y012412D01*
X020170Y012366D01*
X020224Y012323D01*
X035929Y012346D02*
X035875Y012389D01*
X035823Y012435D01*
X035774Y012484D01*
X035727Y012536D01*
X035684Y012590D01*
X035643Y012646D01*
X035606Y012705D01*
X035572Y012765D01*
X035542Y012828D01*
X035515Y012891D01*
X035491Y012957D01*
X035471Y013023D01*
X035455Y013091D01*
X035443Y013159D01*
X035435Y013228D01*
X035430Y013297D01*
X035429Y013367D01*
X035432Y013436D01*
X035439Y013505D01*
X035450Y013573D01*
X035464Y013641D01*
X035483Y013708D01*
X035505Y013774D01*
X035530Y013839D01*
X035559Y013902D01*
X035592Y013963D01*
X035628Y014022D01*
X035667Y014079D01*
X035709Y014135D01*
X035754Y014187D01*
X035802Y014237D01*
X035853Y014284D01*
X035907Y014329D01*
X035962Y014370D01*
X036020Y014408D01*
X036080Y014443D01*
X036142Y014475D01*
X036205Y014503D01*
X036270Y014527D01*
X036336Y014548D01*
X036404Y014565D01*
X036472Y014579D01*
X036541Y014588D01*
X036610Y014594D01*
X036679Y014596D01*
X036748Y014594D01*
X036817Y014588D01*
X036886Y014579D01*
X036954Y014565D01*
X037022Y014548D01*
X037088Y014527D01*
X037153Y014503D01*
X037216Y014475D01*
X037278Y014443D01*
X037338Y014408D01*
X037396Y014370D01*
X037451Y014329D01*
X037505Y014284D01*
X037556Y014237D01*
X037604Y014187D01*
X037649Y014135D01*
X037691Y014079D01*
X037730Y014022D01*
X037766Y013963D01*
X037799Y013902D01*
X037828Y013839D01*
X037853Y013774D01*
X037875Y013708D01*
X037894Y013641D01*
X037908Y013573D01*
X037919Y013505D01*
X037926Y013436D01*
X037929Y013367D01*
X037928Y013297D01*
X037923Y013228D01*
X037915Y013159D01*
X037903Y013091D01*
X037887Y013023D01*
X037867Y012957D01*
X037843Y012891D01*
X037816Y012828D01*
X037786Y012765D01*
X037752Y012705D01*
X037715Y012646D01*
X037674Y012590D01*
X037631Y012536D01*
X037584Y012484D01*
X037535Y012435D01*
X037483Y012389D01*
X037429Y012346D01*
X041952Y012307D02*
X041898Y012350D01*
X041846Y012396D01*
X041797Y012445D01*
X041750Y012497D01*
X041707Y012551D01*
X041666Y012607D01*
X041629Y012666D01*
X041595Y012726D01*
X041565Y012789D01*
X041538Y012852D01*
X041514Y012918D01*
X041494Y012984D01*
X041478Y013052D01*
X041466Y013120D01*
X041458Y013189D01*
X041453Y013258D01*
X041452Y013328D01*
X041455Y013397D01*
X041462Y013466D01*
X041473Y013534D01*
X041487Y013602D01*
X041506Y013669D01*
X041528Y013735D01*
X041553Y013800D01*
X041582Y013863D01*
X041615Y013924D01*
X041651Y013983D01*
X041690Y014040D01*
X041732Y014096D01*
X041777Y014148D01*
X041825Y014198D01*
X041876Y014245D01*
X041930Y014290D01*
X041985Y014331D01*
X042043Y014369D01*
X042103Y014404D01*
X042165Y014436D01*
X042228Y014464D01*
X042293Y014488D01*
X042359Y014509D01*
X042427Y014526D01*
X042495Y014540D01*
X042564Y014549D01*
X042633Y014555D01*
X042702Y014557D01*
X042771Y014555D01*
X042840Y014549D01*
X042909Y014540D01*
X042977Y014526D01*
X043045Y014509D01*
X043111Y014488D01*
X043176Y014464D01*
X043239Y014436D01*
X043301Y014404D01*
X043361Y014369D01*
X043419Y014331D01*
X043474Y014290D01*
X043528Y014245D01*
X043579Y014198D01*
X043627Y014148D01*
X043672Y014096D01*
X043714Y014040D01*
X043753Y013983D01*
X043789Y013924D01*
X043822Y013863D01*
X043851Y013800D01*
X043876Y013735D01*
X043898Y013669D01*
X043917Y013602D01*
X043931Y013534D01*
X043942Y013466D01*
X043949Y013397D01*
X043952Y013328D01*
X043951Y013258D01*
X043946Y013189D01*
X043938Y013120D01*
X043926Y013052D01*
X043910Y012984D01*
X043890Y012918D01*
X043866Y012852D01*
X043839Y012789D01*
X043809Y012726D01*
X043775Y012666D01*
X043738Y012607D01*
X043697Y012551D01*
X043654Y012497D01*
X043607Y012445D01*
X043558Y012396D01*
X043506Y012350D01*
X043452Y012307D01*
X051198Y018506D02*
X051241Y018452D01*
X051287Y018400D01*
X051336Y018351D01*
X051388Y018304D01*
X051442Y018261D01*
X051498Y018220D01*
X051557Y018183D01*
X051617Y018149D01*
X051680Y018119D01*
X051743Y018092D01*
X051809Y018068D01*
X051875Y018048D01*
X051943Y018032D01*
X052011Y018020D01*
X052080Y018012D01*
X052149Y018007D01*
X052219Y018006D01*
X052288Y018009D01*
X052357Y018016D01*
X052425Y018027D01*
X052493Y018041D01*
X052560Y018060D01*
X052626Y018082D01*
X052691Y018107D01*
X052754Y018136D01*
X052815Y018169D01*
X052874Y018205D01*
X052931Y018244D01*
X052987Y018286D01*
X053039Y018331D01*
X053089Y018379D01*
X053136Y018430D01*
X053181Y018484D01*
X053222Y018539D01*
X053260Y018597D01*
X053295Y018657D01*
X053327Y018719D01*
X053355Y018782D01*
X053379Y018847D01*
X053400Y018913D01*
X053417Y018981D01*
X053431Y019049D01*
X053440Y019118D01*
X053446Y019187D01*
X053448Y019256D01*
X053446Y019325D01*
X053440Y019394D01*
X053431Y019463D01*
X053417Y019531D01*
X053400Y019599D01*
X053379Y019665D01*
X053355Y019730D01*
X053327Y019793D01*
X053295Y019855D01*
X053260Y019915D01*
X053222Y019973D01*
X053181Y020028D01*
X053136Y020082D01*
X053089Y020133D01*
X053039Y020181D01*
X052987Y020226D01*
X052931Y020268D01*
X052874Y020307D01*
X052815Y020343D01*
X052754Y020376D01*
X052691Y020405D01*
X052626Y020430D01*
X052560Y020452D01*
X052493Y020471D01*
X052425Y020485D01*
X052357Y020496D01*
X052288Y020503D01*
X052219Y020506D01*
X052149Y020505D01*
X052080Y020500D01*
X052011Y020492D01*
X051943Y020480D01*
X051875Y020464D01*
X051809Y020444D01*
X051743Y020420D01*
X051680Y020393D01*
X051617Y020363D01*
X051557Y020329D01*
X051498Y020292D01*
X051442Y020251D01*
X051388Y020208D01*
X051336Y020161D01*
X051287Y020112D01*
X051241Y020060D01*
X051198Y020006D01*
D19*
X048962Y024312D03*
X047702Y024312D03*
X046403Y024430D03*
X043694Y024391D03*
X042356Y024430D03*
X041017Y024430D03*
X043694Y027231D03*
X042356Y027270D03*
X041017Y027270D03*
X040151Y028525D03*
X038293Y028485D03*
X035466Y029160D03*
X032474Y027349D03*
X031301Y027152D03*
X028820Y027191D03*
X027206Y027231D03*
X025576Y027113D03*
X025576Y024273D03*
X027206Y024391D03*
X028820Y024351D03*
X031301Y024312D03*
X032474Y024509D03*
X034049Y024351D03*
X035466Y026320D03*
X034049Y027191D03*
X038293Y031325D03*
X040151Y031365D03*
X046403Y027270D03*
X047702Y027152D03*
X048962Y027152D03*
X040813Y014042D03*
X039781Y014160D03*
X038592Y014121D03*
X038592Y011281D03*
X039781Y011320D03*
X040813Y011202D03*
X041828Y008058D03*
X043128Y007940D03*
X044663Y007900D03*
X046317Y007900D03*
X046317Y005060D03*
X044663Y005060D03*
X043128Y005100D03*
X041828Y005218D03*
X040490Y005139D03*
X039159Y005218D03*
X037820Y005139D03*
X036521Y005178D03*
X035206Y005139D03*
X033750Y005139D03*
X032293Y005139D03*
X030797Y005218D03*
X029222Y005139D03*
X027576Y005257D03*
X025726Y005296D03*
X023954Y005296D03*
X023954Y008136D03*
X025726Y008136D03*
X027576Y008097D03*
X029222Y007979D03*
X030797Y008058D03*
X032293Y007979D03*
X033750Y007979D03*
X035206Y007979D03*
X036521Y008018D03*
X037820Y007979D03*
X039159Y008058D03*
X040490Y007979D03*
X029498Y011241D03*
X025254Y011241D03*
X024033Y011241D03*
X022852Y011359D03*
X022852Y014199D03*
X024033Y014081D03*
X025254Y014081D03*
X029498Y014081D03*
X017096Y018092D03*
X017096Y020932D03*
X015647Y022659D03*
X011750Y022107D03*
X009466Y021950D03*
X009466Y024790D03*
X011750Y024947D03*
X015647Y025499D03*
X024844Y029942D03*
X024844Y032782D03*
X005797Y015341D03*
X008789Y014278D03*
X005797Y012501D03*
X004435Y012467D03*
X003049Y012546D03*
X003049Y009706D03*
X004435Y009627D03*
X008789Y011438D03*
X011592Y007585D03*
X011592Y004745D03*
D20*
X011539Y027518D02*
X011789Y027518D01*
X012039Y027518D01*
X012039Y027768D02*
X011789Y027768D01*
X011539Y027768D01*
X010614Y027852D02*
X010364Y027852D01*
X010114Y027852D01*
X010114Y027602D02*
X010364Y027602D01*
X010614Y027602D01*
D21*
X018790Y025248D03*
X021630Y025248D03*
X012142Y033169D03*
X009302Y033169D03*
X050641Y006287D03*
X053481Y006287D03*
D22*
X011166Y011710D02*
X011166Y011785D01*
X011141Y011810D01*
X011041Y011810D01*
X011016Y011785D01*
X011016Y011710D01*
X011166Y011710D01*
X011166Y011857D02*
X011066Y011957D01*
X011041Y011957D01*
X011016Y011932D01*
X011016Y011882D01*
X011041Y011857D01*
X011166Y011857D02*
X011166Y011957D01*
X006852Y008698D02*
X006752Y008698D01*
X006752Y008623D01*
X006802Y008648D01*
X006827Y008648D01*
X006852Y008623D01*
X006852Y008573D01*
X006827Y008548D01*
X006777Y008548D01*
X006752Y008573D01*
X006705Y008573D02*
X006705Y008673D01*
X006680Y008698D01*
X006605Y008698D01*
X006605Y008548D01*
X006680Y008548D01*
X006705Y008573D01*
X011073Y023994D02*
X011073Y024069D01*
X011098Y024094D01*
X011199Y024094D01*
X011224Y024069D01*
X011224Y023994D01*
X011073Y023994D01*
X011098Y024141D02*
X011073Y024166D01*
X011073Y024216D01*
X011098Y024241D01*
X011123Y024241D01*
X011148Y024216D01*
X011173Y024241D01*
X011199Y024241D01*
X011224Y024216D01*
X011224Y024166D01*
X011199Y024141D01*
X011148Y024191D02*
X011148Y024216D01*
X008363Y026442D02*
X008363Y026517D01*
X008338Y026542D01*
X008238Y026542D01*
X008213Y026517D01*
X008213Y026442D01*
X008363Y026442D01*
X008363Y026589D02*
X008363Y026689D01*
X008363Y026639D02*
X008213Y026639D01*
X008263Y026589D01*
D23*
X054013Y004697D02*
X054013Y004047D01*
X054210Y004047D02*
X054210Y004697D01*
X054013Y004697D01*
X054801Y004197D02*
X054801Y001547D01*
X054210Y001547D01*
X054210Y002197D01*
X054013Y002197D02*
X054013Y001547D01*
X054210Y001547D01*
X054801Y001547D02*
X054801Y001350D01*
X059525Y001350D01*
X059525Y001862D01*
X059131Y001862D01*
X058738Y001862D02*
X058344Y001862D01*
X058147Y001547D02*
X054801Y001547D01*
X055982Y001862D02*
X055982Y002098D01*
X055982Y001862D02*
X056376Y001862D01*
X056769Y001862D02*
X057163Y001862D01*
X057557Y001862D02*
X057950Y001862D01*
X058147Y001547D02*
X058147Y001350D01*
X058147Y001547D02*
X058147Y004894D01*
X057950Y004382D02*
X057557Y004382D01*
X057163Y004382D02*
X056769Y004382D01*
X056376Y004382D02*
X055982Y004382D01*
X055982Y004146D01*
X055982Y003752D02*
X055982Y003516D01*
X055982Y002728D01*
X055982Y002492D01*
X058738Y002728D02*
X058777Y002730D01*
X058815Y002736D01*
X058852Y002745D01*
X058889Y002758D01*
X058924Y002775D01*
X058957Y002794D01*
X058988Y002817D01*
X059017Y002843D01*
X059043Y002872D01*
X059066Y002903D01*
X059085Y002936D01*
X059102Y002971D01*
X059115Y003008D01*
X059124Y003045D01*
X059130Y003083D01*
X059132Y003122D01*
X059130Y003161D01*
X059124Y003199D01*
X059115Y003236D01*
X059102Y003273D01*
X059085Y003308D01*
X059066Y003341D01*
X059043Y003372D01*
X059017Y003401D01*
X058988Y003427D01*
X058957Y003450D01*
X058924Y003469D01*
X058889Y003486D01*
X058852Y003499D01*
X058815Y003508D01*
X058777Y003514D01*
X058738Y003516D01*
X058738Y004382D02*
X058344Y004382D01*
X059131Y004382D02*
X059525Y004382D01*
X059525Y001862D01*
X059525Y004382D02*
X059525Y004894D01*
X056301Y004894D01*
D24*
X058546Y001102D02*
X058699Y001102D01*
X058622Y001102D02*
X058622Y000719D01*
X058546Y000642D01*
X058469Y000642D01*
X058392Y000719D01*
X058853Y000642D02*
X059159Y000642D01*
X059006Y000642D02*
X059006Y001102D01*
X058853Y000949D01*
D25*
X018143Y031639D02*
X018143Y032699D01*
M02*
